<svg width="244" height="296" viewBox="0 0 244 296" fill="none" xmlns="http://www.w3.org/2000/svg">
<path d="M14.9618 42.1496C14.9618 42.1496 12.1379 12.2381 48.8485 5.69487C85.5591 -0.848247 94.972 25.3244 124.152 25.3244C153.332 25.3244 174.982 -28.8903 226.754 27.1939C278.525 83.2781 201.339 298.267 132.624 295.463C63.9093 292.659 2.72496 130.95 14.9618 42.1496Z" fill="url(#paint0_linear_0_1884)"/>
<path d="M138.978 196.381C137.566 187.969 131.918 167.872 131.918 167.872L69.3218 164.133C69.3218 164.133 62.262 199.653 61.7913 226.293C61.7308 229.715 61.6863 233.033 61.6539 236.224C72.8671 255.19 85.5243 271.019 99.007 281.621C102.063 266.299 104.032 244.403 104.032 244.403C106.956 263.143 119.484 284.859 125.646 294.895C128.174 295.455 130.744 295.801 133.33 295.931C145.232 296.416 157.387 290.36 169.082 279.735C162.391 262.163 140.176 203.522 138.978 196.381Z" fill="#2F3655"/>
<g style="mix-blend-mode:overlay" opacity="0.48">
<path d="M124.27 268.94C127.8 261.579 135.213 265.435 134.154 247.207C133.095 228.98 118.269 194.629 120.387 189.02C121.781 185.33 129.879 182.105 135.269 180.324C133.544 173.664 131.918 167.872 131.918 167.872L69.3218 164.133C69.3218 164.133 62.262 199.653 61.7913 226.293C61.7308 229.715 61.6863 233.033 61.6539 236.224C72.8671 255.19 85.5243 271.019 99.007 281.621C102.063 266.299 104.032 244.403 104.032 244.403C106.956 263.143 119.484 284.859 125.646 294.895C127.861 295.368 130.106 295.684 132.365 295.842C127.727 286.515 122.062 273.545 124.27 268.94Z" fill="#231F20"/>
</g>
<path d="M226.919 142.707L225.647 142.093C225.653 142.085 225.862 141.653 226.199 140.856L227.5 141.398C227.141 142.25 226.919 142.707 226.919 142.707Z" fill="#0F124C"/>
<path fill-rule="evenodd" clip-rule="evenodd" d="M21.6281 35.2131L22.5326 36.2865C23.2445 35.6968 23.9749 35.1282 24.7236 34.5805L23.8853 33.4522C23.114 34.0154 22.3616 34.6024 21.6281 35.2131ZM18.4677 40.0793L17.4446 39.1154C18.1024 38.4253 18.7799 37.7544 19.4771 37.1026L20.4451 38.1268C19.768 38.7566 19.1089 39.4111 18.4677 40.0793ZM13.7272 43.4504L14.8496 44.3048C15.4164 43.5682 16.001 42.8479 16.6035 42.1442L15.528 41.2349C14.9089 41.9552 14.3092 42.6973 13.7272 43.4504ZM11.6756 48.8809L10.4759 48.1414C10.9792 47.3363 11.5018 46.5394 12.0423 45.759L13.206 46.5531C12.6766 47.3171 12.1664 48.0931 11.6756 48.8809ZM7.68516 53.1036L8.94816 53.7335C9.3669 52.9028 9.80308 52.0822 10.2567 51.2715L9.02126 50.5924C8.5593 51.4203 8.11393 52.2574 7.68516 53.1036ZM6.65651 58.8105L5.3466 58.2903C5.69957 57.4112 6.07048 56.5394 6.45933 55.675L7.74992 56.2446C7.36799 57.0936 7.00352 57.9489 6.65651 58.8105ZM3.44516 63.644L4.79364 64.0548C5.06761 63.1693 5.36038 62.2885 5.67198 61.4121L4.34001 60.9466C4.02335 61.8385 3.72506 62.7376 3.44516 63.644ZM189.746 66.5359C189.105 66.514 188.453 66.5057 187.802 66.5057L186.953 66.5112L186.931 65.1091L187.799 65.1037C188.473 65.1037 189.135 65.1118 189.793 65.1338L189.746 66.5359ZM181.219 65.4131L181.349 66.8097C182.293 66.7211 183.226 66.6536 184.145 66.6071L184.071 65.2049C183.132 65.2561 182.182 65.3255 181.219 65.4131ZM195.302 67.0178C194.398 66.8864 193.476 66.7814 192.534 66.7029L192.653 65.3063C193.623 65.3857 194.575 65.4944 195.508 65.6322L195.302 67.0178ZM175.556 66.1004L175.769 67.4861C176.707 67.3446 177.636 67.2177 178.554 67.1054L178.383 65.7143C177.451 65.8266 176.509 65.9581 175.556 66.1004ZM200.723 68.2064C199.85 67.9434 198.955 67.7125 198.039 67.5135L198.339 66.1442C199.295 66.3497 200.226 66.5897 201.134 66.8645L200.723 68.2064ZM3.35554 69.4359L1.97663 69.1292C2.1849 68.2091 2.41149 67.2899 2.65641 66.3716L4.02151 66.733C3.78162 67.6312 3.55963 68.5322 3.35554 69.4359ZM164.389 68.3186L164.723 69.6824C165.645 69.4569 166.561 69.2442 167.469 69.0443L167.161 67.6751C166.244 67.8795 165.32 68.094 164.389 68.3186ZM205.839 70.2711C205.049 69.8577 204.206 69.4715 203.333 69.1182L203.863 67.8202C204.78 68.1899 205.665 68.5952 206.495 69.0279L205.839 70.2711ZM158.885 69.7426L159.26 71.0954C160.175 70.8426 161.084 70.5998 161.987 70.367L161.629 69.0087C160.72 69.246 159.806 69.4907 158.885 69.7426ZM208.926 72.1634C209.447 72.5359 209.959 72.9138 210.458 73.2917L211.316 72.1798C210.806 71.7919 210.286 71.4076 209.753 71.027C209.502 70.8463 209.249 70.671 208.991 70.4984L208.205 71.665C208.449 71.8266 208.689 71.9909 208.926 72.1634ZM0.945319 74.7075L2.34348 74.9047C2.47581 73.9927 2.62612 73.0754 2.79571 72.1607L1.40582 71.9088C1.23391 72.8407 1.0804 73.7737 0.945319 74.7075ZM143.115 76.1945L142.646 74.8745C143.541 74.5596 144.434 74.2502 145.325 73.9462L145.786 75.2716C144.898 75.5756 144.007 75.8832 143.115 76.1945ZM212.641 75.0279C213.367 75.6349 214.068 76.2465 214.742 76.8627L215.699 75.833C215.008 75.2023 214.291 74.5761 213.548 73.9544L212.641 75.0279ZM137.799 78.1142L137.306 76.7997C138.198 76.4711 139.087 76.147 139.972 75.8275L140.452 77.1475C139.571 77.4624 138.687 77.7846 137.799 78.1142ZM1.76984 80.4446L0.360631 80.357C0.418585 79.4177 0.49716 78.4729 0.596454 77.5282L2.00012 77.676C1.9036 78.5989 1.82684 79.5218 1.76984 80.4446ZM216.754 78.7933C217.42 79.4615 218.057 80.1379 218.666 80.8143L219.72 79.8832C219.094 79.184 218.44 78.4921 217.758 77.8075L216.754 78.7933ZM127.255 82.1808L126.728 80.8773L129.362 79.834L129.883 81.1375L127.255 82.1808ZM121.482 83.0051L122.022 84.2977L124.633 83.2324L124.098 81.9344L121.482 83.0051ZM222.153 85.1412C221.62 84.4017 221.057 83.6623 220.467 82.9311L221.57 82.0548C222.177 82.8079 222.754 83.5646 223.301 84.3251L222.153 85.1412ZM0.228271 84.5386C0.228271 85.0398 0.23381 85.5382 0.244853 86.0366L1.6568 86.0038C1.64575 85.5163 1.64025 85.0288 1.64025 84.5386C1.64025 84.1032 1.64438 83.6651 1.65403 83.2215L0.242084 83.1941C0.232409 83.6432 0.228271 84.0923 0.228271 84.5386ZM116.806 86.4693L116.255 85.1767L118.868 84.0841L119.414 85.3767L116.806 86.4693ZM111.036 87.3977L111.596 88.6847L114.202 87.5702L113.647 86.2831L111.036 87.3977ZM225.136 89.8185C224.69 89.0243 224.216 88.2311 223.711 87.4387L224.906 86.6884C225.424 87.5017 225.912 88.3187 226.37 89.1393L225.136 89.8185ZM105.829 89.6487L106.394 90.9358L108.991 89.8103L108.426 88.5232L105.829 89.6487ZM0.639195 91.7107C0.530226 90.7769 0.442442 89.8322 0.375844 88.8764L1.78502 88.7833C1.84844 89.7117 1.93396 90.6345 2.04286 91.5464L0.639195 91.7107ZM100.643 91.9217L101.214 93.2033L103.804 92.0667L103.236 90.7851L100.643 91.9217ZM227.564 94.8053C227.212 93.959 226.832 93.1165 226.422 92.2776L227.694 91.6642C228.115 92.5323 228.507 93.4004 228.868 94.2685L227.564 94.8053ZM95.4616 94.211L96.0407 95.4926L98.6274 94.3452L98.051 93.0635L95.4616 94.211ZM1.60715 97.3246C1.39755 96.4073 1.21139 95.4753 1.04868 94.5287L2.44134 94.2932C2.59852 95.2133 2.7792 96.1225 2.98326 97.0125L1.60715 97.3246ZM90.2908 96.5113L90.8699 97.7902L93.4539 96.6401L92.8776 95.3584L90.2908 96.5113ZM229.401 100.036C229.145 99.154 228.866 98.2749 228.557 97.3903L229.889 96.9303C230.209 97.8368 230.498 98.7423 230.757 99.6469L229.401 100.036ZM85.1201 98.8062L85.6965 100.088L88.2832 98.9349L87.7041 97.6588L85.1201 98.8062ZM2.32967 100.085C2.60361 101.013 2.90328 101.917 3.22869 102.799L4.55515 102.317C4.23888 101.462 3.94841 100.586 3.68372 99.6907L2.32967 100.085ZM75.3372 104.661L74.7663 103.379L77.3572 102.24L77.9308 103.522L75.3372 104.661ZM230.097 102.722C230.305 103.629 230.487 104.538 230.643 105.439L232.036 105.203C231.874 104.275 231.687 103.344 231.473 102.41L230.097 102.722ZM70.1389 106.918L69.5791 105.63L72.1755 104.508L72.7408 105.795L70.1389 106.918ZM4.3221 105.45C4.72564 106.332 5.15906 107.186 5.62237 108.01L6.85507 107.326C6.41105 106.534 5.99462 105.713 5.60722 104.869L4.3221 105.45ZM64.9255 109.133L64.3767 107.84L66.98 106.742L67.537 108.029L64.9255 109.133ZM231.046 108.188C231.159 109.114 231.244 110.037 231.306 110.949L232.715 110.855C232.652 109.917 232.562 108.971 232.447 108.018L231.046 108.188ZM59.6817 111.296L59.1494 109.998C60.0154 109.648 60.8873 109.291 61.7651 108.928L62.3084 110.22C61.4245 110.587 60.549 110.946 59.6817 111.296ZM7.14878 110.453C7.69709 111.246 8.28712 112.009 8.91643 112.74L9.98922 111.83C9.39368 111.135 8.83406 110.41 8.31252 109.659L7.14878 110.453ZM54.4062 113.389L53.896 112.08C54.7619 111.748 55.6389 111.405 56.5269 111.05L57.0508 112.353C56.1587 112.707 55.2772 113.052 54.4062 113.389ZM48.6068 114.046L49.0838 115.366C49.9608 115.054 50.8502 114.725 51.7519 114.391L51.2583 113.076C50.362 113.411 49.4782 113.734 48.6068 114.046ZM232.835 116.538L231.423 116.505C231.436 115.996 231.443 115.481 231.444 114.963C231.444 114.555 231.44 114.139 231.432 113.723L232.844 113.695C232.852 114.123 232.856 114.544 232.856 114.966C232.855 115.497 232.848 116.018 232.835 116.538ZM10.9309 114.821C11.6433 115.48 12.3987 116.092 13.1922 116.653L14.0113 115.514C13.2693 114.987 12.5619 114.413 11.8934 113.797L10.9309 114.821ZM43.7035 117.206L43.2706 115.87C44.1462 115.59 45.0369 115.292 45.9441 114.982L46.4047 116.308C45.4892 116.623 44.5888 116.922 43.7035 117.206ZM37.871 117.463L38.235 118.816C39.1299 118.579 40.0454 118.321 40.9817 118.041L40.5763 116.699C39.6538 116.973 38.7521 117.228 37.871 117.463ZM18.3437 119.359C17.4278 119.025 16.5359 118.63 15.6742 118.175L16.3361 116.938C17.1408 117.362 17.9737 117.732 18.829 118.044L18.3437 119.359ZM32.4093 118.701L32.6575 120.082C33.5648 119.918 34.5011 119.725 35.4663 119.504L35.1464 118.14C34.2056 118.358 33.2932 118.545 32.4093 118.701ZM24.019 120.637C23.0511 120.545 22.09 120.392 21.1413 120.18L21.453 118.811C22.3442 119.011 23.2474 119.154 24.1569 119.241L24.019 120.637ZM26.8967 119.328L26.9353 120.73C27.8288 120.706 28.7706 120.635 29.8185 120.511L29.653 119.12C28.6478 119.238 27.7461 119.306 26.8967 119.328ZM232.442 122.212L231.039 122.053C231.141 121.149 231.228 120.224 231.294 119.285L232.703 119.383C232.634 120.344 232.547 121.287 232.442 122.212ZM230.187 127.552L231.574 127.82C231.75 126.917 231.914 125.98 232.063 125.022L230.668 124.808C230.521 125.75 230.36 126.665 230.187 127.552ZM230.269 133.347L228.907 132.974C229.144 132.123 229.377 131.222 229.599 130.277L230.975 130.595C230.748 131.561 230.509 132.479 230.269 133.347ZM228.536 138.758L227.21 138.282C227.494 137.504 227.798 136.625 228.111 135.647L229.457 136.069C229.139 137.068 228.826 137.969 228.536 138.758ZM80.5231 102.38L79.9439 101.101L82.5348 99.9536L83.1084 101.235L80.5231 102.38ZM132.003 78.807L132.515 80.1133C133.397 79.771 134.276 79.4341 135.155 79.1028L134.653 77.7938C133.771 78.1242 132.888 78.4619 132.003 78.807ZM148.461 74.3734L148.017 73.0425C148.921 72.7467 149.821 72.4556 150.718 72.1689L151.148 73.5053C150.256 73.7901 149.36 74.0795 148.461 74.3734ZM153.842 72.6701L153.426 71.3282C154.339 71.0489 155.246 70.7805 156.15 70.5149L156.547 71.8622C155.651 72.1224 154.749 72.3916 153.842 72.6701ZM169.946 67.089L170.227 68.4638C171.156 68.2748 172.078 68.1023 172.992 67.9407L172.746 66.5605C171.821 66.7221 170.886 66.9001 169.946 67.089Z" fill="#0F124C"/>
<path d="M27.0842 32.9648L26.3231 31.7817C26.7243 31.527 27.1306 31.2769 27.542 31.0313L28.2673 32.2363C27.8674 32.4718 27.4744 32.7155 27.0842 32.9648Z" fill="#0F124C"/>
<path d="M176.159 272.681C179.916 268.597 183.451 264.317 186.749 259.859V2.39262C183.207 2.07205 179.637 2.28184 176.159 3.01497L176.159 272.681Z" fill="#859CE8"/>
<path d="M17.8739 40.9812C17.8739 40.9812 20.6978 46.8233 17.2856 49.978L63.4092 49.8612L63.2621 41.4485L17.8739 40.9812Z" fill="white"/>
<path d="M17.168 10.6023C17.168 10.6023 19.9918 16.4444 16.5797 19.5991L62.7032 19.4823L62.5561 11.0695L17.168 10.6023Z" fill="white"/>
<path d="M15.8737 7.33044V11.0694H62.5562V19.0148H15.8737V22.7538H67.4098V22.6079V19.0148V11.0694V7.33044H15.8737V7.33044Z" fill="#4F64B1"/>
<rect x="19.58" y="12.3568" width="41.3877" height="0.722333" fill="#162659"/>
<rect x="19.58" y="14.5457" width="41.3877" height="0.701083" fill="#162659"/>
<rect x="19.58" y="16.6488" width="41.3877" height="0.701083" fill="#162659"/>
<rect x="20.1978" y="43.026" width="41.3876" height="0.701051" fill="#A29B00"/>
<rect x="20.1978" y="45.2167" width="41.3876" height="0.701083" fill="#A29B00"/>
<rect x="20.1978" y="47.3199" width="41.3876" height="0.701051" fill="#A29B00"/>
<path d="M23.051 26.0254C23.051 26.0254 25.8749 31.8675 22.4627 35.0223L68.5863 34.9054L68.4392 26.4927L23.051 26.0254Z" fill="white"/>
<path d="M21.7567 22.7538V26.4928H68.4392V34.4382H21.7567V38.1769H73.2928V38.031V34.4382V26.4928V22.7538H21.7567V22.7538Z" fill="#00F7E5"/>
<rect x="25.4636" y="27.7781" width="41.3876" height="0.701051" fill="#162659"/>
<rect x="25.4636" y="29.9751" width="41.3876" height="0.722367" fill="#162659"/>
<rect x="25.4636" y="32.0734" width="41.3876" height="0.722333" fill="#162659"/>
<path d="M16.5796 37.7094V41.4484H63.2621V49.3938H16.5796V53.1328H68.1157V52.9866V49.3938V41.4484V37.7094H16.5796V37.7094Z" fill="#859CE8"/>
<path d="M217.361 163.43C217.361 163.43 221.67 163.838 222.306 166.843L238.032 140.787L233.17 137.989L217.361 163.43Z" fill="white"/>
<path d="M199.743 153.427C199.743 153.427 204.051 153.834 204.687 156.839L220.414 130.783L215.551 127.985L199.743 153.427Z" fill="white"/>
<path d="M197.428 153.037L199.567 154.317L215.551 127.986L220.096 130.706L204.112 157.037L206.25 158.318L223.896 129.248L223.813 129.199L221.758 127.968L217.213 125.248L215.074 123.967L197.428 153.037V153.037Z" fill="#4F64B1"/>
<path d="M201.772 152.786L215.943 129.441L201.772 152.786Z" fill="#CAE0FF"/>
<path d="M201.571 152.666L215.742 129.321L216.143 129.562L201.972 152.906L201.571 152.666Z" fill="#162659"/>
<path d="M203.025 153.536L217.196 130.192L203.025 153.536Z" fill="#CAE0FF"/>
<path d="M202.824 153.416L216.996 130.072L217.397 130.312L203.225 153.657L202.824 153.416Z" fill="#162659"/>
<path d="M204.228 154.257L218.399 130.912L204.228 154.257Z" fill="#CAE0FF"/>
<path d="M204.027 154.137L218.199 130.792L218.6 131.032L204.428 154.377L204.027 154.137Z" fill="#162659"/>
<path d="M219.326 162.82L233.498 139.475L233.899 139.715L219.727 163.06L219.326 162.82Z" fill="#A29B00"/>
<path d="M220.58 163.57L234.751 140.225L235.152 140.465L220.98 163.81L220.58 163.57Z" fill="#A29B00"/>
<path d="M221.783 164.29L235.954 140.945L236.355 141.185L222.184 164.53L221.783 164.29Z" fill="#A29B00"/>
<path d="M210.579 155.389C210.579 155.389 214.888 155.797 215.524 158.802L231.25 132.746L226.387 129.948L210.579 155.389Z" fill="white"/>
<path d="M208.265 154.999L210.403 156.279L226.387 129.948L230.932 132.668L214.948 159L217.087 160.28L234.733 131.211L234.649 131.161L232.594 129.931L228.049 127.21L225.911 125.93L208.265 154.999V154.999Z" fill="#00F7E5"/>
<path d="M212.408 154.629L226.579 131.284L226.98 131.524L212.809 154.869L212.408 154.629Z" fill="#162659"/>
<path d="M213.661 155.379L227.832 132.034L228.233 132.274L214.062 155.619L213.661 155.379Z" fill="#162659"/>
<path d="M214.864 156.099L229.035 132.754L229.436 132.994L215.265 156.339L214.864 156.099Z" fill="#162659"/>
<path d="M215.047 163.04L217.185 164.32L233.17 137.989L237.714 140.71L221.73 167.041L223.869 168.321L241.515 139.252L241.431 139.202L239.376 137.972L234.831 135.251L232.693 133.971L215.047 163.04V163.04Z" fill="#859CE8"/>
<path d="M122.858 58.9749L168.04 87.718C168.04 87.718 159.216 107.698 162.745 112.956C166.275 118.214 169.099 116.812 169.099 116.812C169.099 116.812 157.098 125.925 139.801 112.255C122.505 98.5843 122.858 58.9749 122.858 58.9749Z" fill="#277DBB"/>
<path d="M133.801 174.415C133.801 174.415 152.156 86.5496 139.448 71.1265C126.741 55.7033 110.268 55.7033 110.268 55.7033L86.7357 57.1054C86.7357 57.1054 67.9098 61.7791 58.9674 75.3328C50.0251 88.8864 74.9695 164.6 74.9695 164.6L74.4988 171.494C74.4988 171.494 116.387 190.773 133.801 174.415Z" fill="#FF6C6C"/>
<path d="M54.2609 132.819L50.9664 177.219L58.9676 175.35L60.8502 127.678L54.2609 132.819V132.819Z" fill="#4F64B1"/>
<path d="M96.384 32.1012L88.383 57.1054C88.383 57.1054 103.208 68.7896 109.092 68.3222C114.975 67.8549 115.21 46.1223 115.21 46.1223L98.7372 23.2212L96.384 32.1012Z" fill="#FED4D5"/>
<path d="M48.6132 176.284C48.6132 176.284 38.7295 228.162 44.3773 244.053C50.0251 259.943 105.562 269.758 107.915 266.019L104.62 190.773L48.6132 176.284Z" fill="#758FDB"/>
<path d="M172.982 44.2528C172.982 44.2528 150.391 85.2643 152.509 100.688C154.627 116.111 169.805 123.472 176.512 110.502L176.159 15.8602C176.159 15.8602 173.688 14.1075 172.629 17.2623C171.57 20.417 172.276 22.1696 170.864 26.0254C169.452 29.8811 173.688 37.2422 172.982 44.2528Z" fill="#FED4D5"/>
<path d="M101.797 191.707L50.9664 177.219L58.9676 175.35L111.209 187.968L101.797 191.707V191.707Z" fill="#4F64B1"/>
<path d="M187.101 24.2728C187.101 24.2728 179.336 22.5202 178.983 27.4275C178.63 32.3349 177.218 39.3454 182.16 41.098C187.101 42.8507 190.984 37.5928 187.101 24.2728Z" fill="#FED4D5"/>
<path d="M101.796 191.708C101.796 191.708 93.7954 258.541 102.267 264.617C110.739 270.693 114.975 264.15 115.916 258.074C116.857 251.998 111.209 187.969 111.209 187.969L101.796 191.708Z" fill="#4F64B1"/>
<path d="M63.9092 219.049C63.9092 219.049 94.5014 213.44 96.8546 211.571C99.2078 209.701 101.796 191.708 101.796 191.708L48.6132 176.284C48.6132 176.284 44.142 193.577 45.5539 198.017C46.9659 202.457 63.9092 219.049 63.9092 219.049Z" fill="#859CE8"/>
<g style="mix-blend-mode:overlay" opacity="0.48">
<path d="M114.033 168.69C109.092 157.122 120.034 127.678 120.034 127.678C120.034 127.678 114.739 99.2854 102.032 85.9654C89.3243 72.6454 79.4407 72.996 79.4407 72.996L62.1179 71.3489C60.9643 72.5928 59.9109 73.9249 58.9674 75.3327C50.0252 88.8863 74.9695 164.6 74.9695 164.6L74.4988 171.494C74.4988 171.494 111.92 188.704 130.724 176.769C124.345 176.602 116.728 174.996 114.033 168.69Z" fill="#231F20"/>
<path d="M117.916 72.6454C124.67 75.5799 134.8 75.9833 140.822 73.3797C140.452 72.579 139.991 71.823 139.448 71.1264C126.741 55.7032 110.268 55.7032 110.268 55.7032L91.8452 56.8009C99.7499 62.2306 111.082 69.6766 117.916 72.6454Z" fill="#231F20"/>
</g>
<path d="M73.7928 62.7138C73.7928 62.7138 93.3248 68.3222 99.9138 109.451C105.603 144.964 111.209 187.969 111.209 187.969L101.796 191.708C101.796 191.708 91.5598 76.1506 63.3209 69.6075C63.3209 69.6075 67.6744 60.8443 73.7928 62.7138Z" fill="#859CE8"/>
<g style="mix-blend-mode:overlay">
<path d="M98.7373 23.2212L96.384 32.1011L93.6299 40.7082L103.329 66.7447C105.564 67.7861 107.611 68.4398 109.092 68.3222C114.975 67.8548 115.21 46.1222 115.21 46.1222L98.7373 23.2212Z" fill="#231F20"/>
</g>
<path d="M129.977 24.0975C129.977 24.0975 142.213 22.6954 141.507 16.1522C140.801 9.6091 138.919 4.46804 129.035 5.63648C119.152 6.80486 119.387 8.20699 113.739 4.70171C108.091 1.19648 104.326 -1.60772 99.1491 1.8975C93.9719 5.40279 95.1485 18.0217 95.8545 22.228C96.5605 26.4344 101.561 29.0633 101.561 29.0633C101.561 29.0633 106.915 33.9122 109.268 29.9397C111.621 25.967 117.269 21.0596 118.446 21.0596C119.622 21.0596 129.977 24.0975 129.977 24.0975Z" fill="#2F3655"/>
<path d="M104.15 16.678C104.15 16.678 99.6785 9.90118 97.0899 13.4065C94.5014 16.9118 94.7367 26.0254 98.7372 27.8949C98.7372 27.8949 99.4432 47.7581 103.679 52.6654C107.915 57.5728 119.681 57.3391 121.564 54.5349C123.446 51.7307 132.153 26.7265 131.447 19.716C131.447 19.716 120.152 22.0528 116.622 18.7812C113.092 15.5096 111.915 13.1728 111.915 13.1728C111.915 13.1728 108.386 26.7265 105.326 27.4275C102.267 28.1286 104.15 16.678 104.15 16.678Z" fill="#FED4D5"/>
<path d="M125.094 47.5244C124.884 46.8153 117.328 44.4864 112.386 45.6549C107.444 46.8233 104.62 43.7854 103.914 40.7475C103.208 37.7096 109.327 22.0528 107.444 21.5854C105.562 21.118 91.2069 37.7096 100.855 55.2359C105.35 63.4018 130.271 65.0507 125.094 47.5244Z" fill="#2F3655"/>
<g style="mix-blend-mode:overlay">
<path d="M166.982 84.6739C163.58 92.9221 158.103 101.245 154.163 106.575C158.775 117.754 170.863 121.671 176.607 110.461L176.174 51.9345C173.985 61.7577 170.45 76.2635 166.982 84.6739Z" fill="#231F20"/>
</g>
<path d="M186.043 233.771C178.512 223.956 186.513 216.011 179.924 214.141C173.335 212.272 167.687 219.282 167.217 214.609C166.746 209.935 173.806 208.065 168.629 204.794C163.451 201.522 156.392 207.598 155.45 202.924C154.509 198.251 158.274 194.044 153.568 193.11C148.861 192.175 143.214 197.783 143.214 193.11C143.214 188.436 146.508 184.697 141.331 184.697C136.154 184.697 124.858 178.154 124.858 178.154C124.858 178.154 131.447 191.24 130.035 195.914C128.623 200.588 138.507 201.99 138.507 204.794C138.507 207.598 133.33 215.076 136.624 216.011C139.919 216.945 148.391 214.609 146.508 219.282C144.626 223.956 140.39 231.901 146.038 232.836C151.685 233.771 157.804 231.901 156.862 236.575C155.921 241.249 151.685 247.792 157.333 247.792C162.981 247.792 169.57 246.857 168.629 251.531C167.687 256.204 165.334 263.215 170.511 263.215C173.072 263.215 177.934 263.787 182.196 264.364C188.025 257.022 193.344 249.294 198.116 241.234C194.17 240.363 189.549 238.341 186.043 233.771Z" fill="#B0D0FF"/>
<path d="M34.4938 146.84C43.436 135.156 36.0712 125.009 37.871 117.463C39.6709 109.918 54.7316 104.777 54.7316 104.777C54.7316 104.777 42.9655 94.4948 34.0231 101.038C25.0807 107.581 24.1569 119.241 24.1569 119.241C24.1569 119.241 18.4917 105.244 23.6688 97.7664C28.846 90.2885 34.4938 95.8969 40.1416 86.0821C45.7893 76.2674 39.6709 62.7138 39.6709 62.7138C39.6709 62.7138 34.0231 78.137 28.846 78.137C23.6688 78.137 19.4329 90.2885 19.4329 90.2885C19.4329 90.2885 16.6091 82.8107 21.3156 73.9306C24.1837 68.532 27.4891 63.374 31.1992 58.5075C31.1992 58.5075 20.3991 54.7107 13.4653 61.6319C12.7861 89.777 17.8002 122.616 26.9532 154.647C29.7638 152.344 32.2944 149.725 34.4938 146.84V146.84Z" fill="#B0D0FF"/>
<path d="M212.869 184.23C198.75 180.023 210.987 168.806 202.515 165.535C194.044 162.263 188.396 168.339 189.808 162.263C191.22 156.187 198.279 151.981 192.161 149.177C186.042 146.373 178.512 151.046 179.924 146.373C181.336 141.699 187.454 140.297 180.395 137.493C173.335 134.689 166.275 140.764 162.981 135.623C161.069 132.69 159.49 129.555 158.274 126.276C158.274 126.276 153.097 133.286 154.98 143.101C156.862 152.916 168.629 150.112 165.334 154.318C162.039 158.524 159.686 157.59 162.039 161.796C164.393 166.002 173.335 166.937 170.982 168.806C168.629 170.676 165.805 172.078 167.687 176.752C169.57 181.425 179.454 182.36 177.1 186.099C174.747 189.838 169.099 190.773 173.806 197.783C178.512 204.794 190.749 202.457 189.337 211.337C187.925 220.217 185.101 223.488 188.396 228.63C190.239 231.506 195.617 235.259 199.999 238.008C207.841 224.446 215.003 209.283 221.158 193.398C219.852 189.151 217.371 185.571 212.869 184.23Z" fill="#B0D0FF"/>
<g style="mix-blend-mode:overlay">
<path d="M202.633 207.949C203.186 206.837 203.662 205.689 204.058 204.513C204.518 203.188 204.851 201.822 205.053 200.434C205.314 198.704 205.179 196.939 204.66 195.267C203.99 193.397 202.588 191.874 200.772 191.044C199.724 190.42 198.692 190.115 197.532 189.232C196.93 188.837 196.39 188.355 195.931 187.802C195.435 187.272 195.014 186.677 194.68 186.034C193.244 183.428 193.295 180.358 193.278 177.824C193.274 176.555 193.073 175.351 192.665 175.023C192.536 174.936 192.39 174.883 192.252 174.779C192.026 174.745 191.803 174.699 191.583 174.639C190.832 174.546 190.089 174.392 189.363 174.179C186.293 173.233 183.927 171.06 182.394 168.585C180.887 166.165 180.027 163.402 179.896 160.56C179.875 159.928 179.853 159.301 179.832 158.68C179.739 158.348 179.654 157.984 179.549 157.918C179.457 157.805 179.009 157.704 178.444 157.685C177.767 157.688 177.093 157.613 176.434 157.462C175.619 157.251 174.925 156.723 174.506 155.997C174.177 155.399 173.973 154.74 173.908 154.061C173.848 153.552 173.759 153.047 173.643 152.548C173.532 152.139 173.365 151.746 173.148 151.381C172.209 149.953 170.416 149.149 169.013 148.262C167.743 147.533 166.558 146.665 165.482 145.674C164.795 145.039 164.182 144.329 163.656 143.558C163.292 143.031 163.098 142.751 163.098 142.751C163.098 142.751 163.333 142.998 163.774 143.461C164.407 144.118 165.098 144.719 165.836 145.257C166.977 146.085 168.207 146.783 169.504 147.339C170.943 148.062 172.939 148.552 174.456 150.486C174.814 150.988 175.094 151.54 175.289 152.123C175.456 152.663 175.593 153.212 175.7 153.767C175.895 154.776 176.268 155.392 176.94 155.48C177.45 155.543 177.966 155.555 178.478 155.514C179.097 155.525 179.94 155.447 180.889 156.042C181.844 156.707 182.066 157.65 182.243 158.508C182.287 159.134 182.332 159.766 182.378 160.404C182.597 162.8 183.393 165.109 184.698 167.136C185.978 169.182 187.955 170.839 190.141 171.485C190.72 171.666 191.314 171.798 191.916 171.881C192.36 171.971 192.805 172.076 193.241 172.193C193.711 172.41 194.152 172.684 194.554 173.007C195.233 173.699 195.676 174.584 195.823 175.539C195.952 176.28 196.011 177.031 196.001 177.782C195.991 180.523 195.872 182.95 196.886 184.909C197.361 185.859 198.036 186.696 198.866 187.364C199.587 188.073 200.864 188.632 201.782 189.272C203.996 190.528 205.641 192.644 206.174 194.811C206.651 196.725 206.619 198.73 206.081 200.628C205.706 202.037 205.198 203.407 204.563 204.72C204.023 205.854 203.377 206.935 202.633 207.949Z" fill="#231F20"/>
</g>
<g style="mix-blend-mode:overlay">
<path d="M185.337 248.259C184.078 247.942 182.842 247.541 181.638 247.059C179.383 246.089 175.982 244.768 172.778 241.713C171.222 240.196 169.675 238.107 169.248 235.41C169.168 234.804 169.087 234.19 169.004 233.568C168.98 233.271 168.933 232.975 168.864 232.685L168.612 232.036C168.18 231.102 167.468 230.324 166.574 229.807C164.592 228.645 161.915 228.318 159.101 227.279C157.738 226.757 156.049 225.923 155.139 224.163C154.939 223.722 154.775 223.267 154.648 222.8L154.461 221.768C154.37 220.983 154.331 220.193 154.345 219.403C154.41 216.504 155.186 213.514 154.369 211.787C153.985 210.999 153.138 210.471 152.008 210.131L150.087 209.626C149.256 209.392 148.481 208.994 147.808 208.457C147.107 207.826 146.656 206.967 146.538 206.034C146.465 205.349 146.449 204.658 146.49 203.97C146.536 202.781 146.281 202.161 145.538 201.559C144.77 200.942 143.81 200.672 142.633 200.257C141.517 199.891 140.464 199.356 139.513 198.67C137.882 197.479 136.544 195.936 135.6 194.157C134.875 192.839 134.291 191.449 133.858 190.01C133.472 188.775 133.216 187.504 133.095 186.216C133.426 187.45 133.854 188.656 134.374 189.824C135.33 191.998 137.064 195.226 140.399 197.36C141.263 197.903 142.211 198.303 143.204 198.544C144.178 198.83 145.574 199.084 146.764 199.914C147.441 200.344 147.979 200.957 148.315 201.682C148.626 202.383 148.793 203.14 148.806 203.906C148.856 205.338 148.87 206.211 149.441 206.594C149.828 206.857 150.257 207.049 150.711 207.163L152.719 207.617C154.171 207.963 155.956 208.851 156.814 210.588C157.652 212.287 157.51 213.922 157.455 215.356C157.357 216.808 157.192 218.165 157.167 219.468C157.151 220.075 157.168 220.683 157.216 221.288L157.39 222.317L157.611 222.916C157.973 223.704 158.927 224.309 160.101 224.763C162.449 225.681 165.307 226.147 167.886 227.717C169.222 228.542 170.24 229.787 170.779 231.255L171.087 232.403C171.137 232.72 171.165 233.04 171.171 233.36C171.208 233.965 171.246 234.562 171.282 235.151C171.453 237.261 172.597 239.153 173.926 240.631C176.659 243.592 179.735 245.417 181.869 246.567C184.03 247.716 185.337 248.259 185.337 248.259Z" fill="#231F20"/>
</g>
<g style="mix-blend-mode:overlay">
<path d="M25.0807 133.988C25.0807 133.988 33.7289 131.884 32.8464 123.296C31.964 114.709 42.3771 103.316 50.1428 104.543C50.1428 104.543 33.5524 101.038 31.964 114.709C30.3755 128.379 28.4341 129.956 25.0807 133.988Z" fill="#231F20"/>
</g>
<g style="mix-blend-mode:overlay">
<path d="M18.9035 98.0586C18.9035 98.0586 19.7859 88.9449 25.9632 88.2438C32.1404 87.5428 38.8472 78.0786 39.7297 68.4391C39.7297 68.4391 33.0229 84.7386 29.6695 84.2127C26.3162 83.687 18.9035 88.0685 18.9035 98.0586Z" fill="#231F20"/>
</g>
<g style="mix-blend-mode:overlay">
<path d="M15.1971 81.2333C15.1971 81.2333 21.0214 60.377 27.1986 60.377C27.1986 60.377 17.315 55.8202 15.1971 81.2333Z" fill="#231F20"/>
</g>
<path d="M180.192 88.0789L184.403 91.7031C184.403 91.7031 163.909 117.631 162.786 117.909C161.663 118.188 130.5 115.121 130.5 115.121L131.623 92.5395L136.115 85.8486C136.115 85.8486 161.102 95.885 161.102 95.0486C161.102 94.2122 180.192 88.0789 180.192 88.0789Z" fill="white"/>
<path d="M164.471 99.5094L131.343 90.0303L109.445 124.043L143.134 133.522L166.436 124.043L185.807 91.4242L164.471 99.5094V99.5094Z" fill="#2F3655"/>
<g style="mix-blend-mode:overlay">
<path d="M164.471 99.5091L143.331 132.761C143.331 132.761 142.698 132.902 141.709 133.121L143.134 133.521L166.436 124.043L185.807 91.4243L164.471 99.5091Z" fill="#231F20"/>
</g>
<path d="M132.653 128.204C131.813 126.448 155.683 112.989 152.332 118.039C144.207 130.285 151.224 118.673 158.686 118.389C160.626 118.315 162.443 123.473 162.392 124.523C162.216 128.204 151.685 136.091 142.743 136.558C133.801 137.025 84.3825 190.305 67.4391 166.002L66.9684 157.59C66.9684 157.59 75.4401 141.232 80.6172 138.895C85.7944 136.558 95.2073 138.895 95.2073 138.895L132.653 128.204Z" fill="#FED4D5"/>
<g style="mix-blend-mode:overlay">
<path d="M135.683 133.988C135.683 133.988 82.2645 178.387 74.2635 162.497C71.8376 157.679 72.0812 152.024 73.5867 146.481C71.1889 150.068 68.9799 153.776 66.9686 157.589L67.439 166.002C84.3824 190.305 133.801 137.025 142.743 136.558C151.685 136.091 162.216 128.204 162.392 124.523C162.417 124.003 161.982 122.473 161.302 121.071C156.066 125.818 145.467 134.155 135.683 133.988Z" fill="#231F20"/>
</g>
<path d="M65.5565 69.7243C65.5565 69.7243 50.4957 72.5285 47.6719 92.6254C44.848 112.722 67.4391 166.002 67.4391 166.002C67.4391 166.002 77.3227 137.025 95.2073 138.895C95.2073 138.895 87.677 65.0507 65.5565 69.7243Z" fill="#FF6C6C"/>
<g style="mix-blend-mode:overlay" opacity="0.42">
<path d="M48.3208 89.1487C48.0643 90.2474 47.8437 91.4018 47.6719 92.6254C44.848 112.722 67.4391 166.002 67.4391 166.002C68.5397 162.972 69.8565 160.024 71.3793 157.181C63.77 141.112 49.1765 108.036 48.3208 89.1487Z" fill="#231F20"/>
</g>
<path d="M95.2073 138.895C95.2073 138.895 76.9697 132.585 66.0272 165.885C66.0272 165.885 68.4981 173.246 74.4988 171.494C74.4988 171.494 76.3814 146.606 95.2073 138.895Z" fill="#FA7E7E"/>
<defs>
<linearGradient id="paint0_linear_0_1884" x1="13.3918" y1="295.49" x2="243.683" y2="295.49" gradientUnits="userSpaceOnUse">
<stop stop-color="white"/>
<stop offset="1" stop-color="#DBEAFF"/>
</linearGradient>
</defs>
</svg>
