<svg width="211" height="209" viewBox="0 0 211 209" fill="none" xmlns="http://www.w3.org/2000/svg">
<g clip-path="url(#clip0_222_250)">
<path d="M192.231 167.442L175.103 140.172C175.103 140.172 201.042 149.879 198.098 167.442H192.231Z" fill="#FF6C6C"/>
<path d="M14.683 167.623L14.0328 167.609C14.2843 159.86 15.0556 152.141 16.341 144.51C19.1527 128.173 23.8282 117.444 30.2374 112.621L30.6108 113.191C15.6387 124.459 14.6906 167.193 14.683 167.623Z" fill="#FF6C6C"/>
<path d="M22.8109 167.456L22.1606 167.443C22.1746 166.671 22.581 148.481 29.2621 143.453L29.6354 144.023C23.2239 148.848 22.814 167.271 22.8109 167.456Z" fill="#FF6C6C"/>
<path d="M34.3099 113.254C36.1055 113.254 37.5611 111.694 37.5611 109.77C37.5611 107.845 36.1055 106.285 34.3099 106.285C32.5144 106.285 31.0588 107.845 31.0588 109.77C31.0588 111.694 32.5144 113.254 34.3099 113.254Z" fill="#3F3D56"/>
<path d="M32.6999 143.223C34.4954 143.223 35.951 141.663 35.951 139.738C35.951 137.814 34.4954 136.254 32.6999 136.254C30.9043 136.254 29.4487 137.814 29.4487 139.738C29.4487 141.663 30.9043 143.223 32.6999 143.223Z" fill="#3F3D56"/>
<path d="M21.2955 115.343C21.9065 119.526 20.314 123.268 20.314 123.268C20.314 123.268 17.7308 120.227 17.1198 116.044C16.5088 111.861 18.1013 108.12 18.1013 108.12C18.1013 108.12 20.6845 111.16 21.2955 115.343Z" fill="#FF6C6C"/>
<path d="M31.9226 125.503C28.186 126.876 24.4713 125.847 24.4713 125.847C24.4713 125.847 26.8147 122.591 30.5513 121.218C34.2878 119.844 38.0025 120.873 38.0025 120.873C38.0025 120.873 35.6591 124.129 31.9226 125.503Z" fill="#FF6C6C"/>
<path d="M32.0426 152.043C30.3515 152.612 28.5505 152.695 26.8199 152.284C27.9187 150.785 29.3987 149.658 31.0814 149.039C32.7642 148.421 34.5779 148.337 36.3042 148.798C35.1733 150.261 33.7037 151.38 32.0426 152.043Z" fill="#FF6C6C"/>
<path d="M210.675 168.139H0.325116C0.23889 168.139 0.1562 168.102 0.0952289 168.037C0.0342579 167.972 0 167.883 0 167.791C0 167.698 0.0342579 167.61 0.0952289 167.544C0.1562 167.479 0.23889 167.442 0.325116 167.442H210.675C210.761 167.442 210.844 167.479 210.905 167.544C210.966 167.61 211 167.698 211 167.791C211 167.883 210.966 167.972 210.905 168.037C210.844 168.102 210.761 168.139 210.675 168.139Z" fill="#CBCBCB"/>
<path d="M133.23 184.204L130.57 191.624L102.602 184.158L106.528 173.207L133.23 184.204Z" fill="#FFB7B7"/>
<path d="M140.619 185.074L132.042 209L131.76 208.884C129.456 207.935 127.598 206.044 126.594 203.626C125.591 201.209 125.524 198.463 126.41 195.994L126.41 195.993L131.648 181.38L140.619 185.074Z" fill="#2F2E41"/>
<path d="M90.7316 91.2971L78.5436 92.5203L77.9389 131.39C78.1005 133.295 78.9516 135.056 80.31 136.297C81.6683 137.537 83.4259 138.158 85.2063 138.027L92.9337 137.456L90.7316 91.2971Z" fill="#FF6C6C"/>
<path d="M133.7 89.3841L125.36 89.269L124.866 135.454C126.709 135.52 128.545 135.178 130.259 134.45C131.973 133.722 133.529 132.623 134.829 131.222C136.129 129.82 137.146 128.147 137.817 126.306C138.487 124.465 138.796 122.495 138.725 120.521L133.7 89.3841Z" fill="#FF6C6C"/>
<path d="M85.3106 151.862C85.1131 153.201 84.8264 154.524 84.4527 155.82C84.0319 157.088 83.3822 158.261 82.9974 159.543C81.771 163.627 83.4712 168.181 86.1868 171.334C88.5417 174.057 91.5814 175.992 94.9393 176.905C97.3891 177.565 99.9363 177.66 102.461 177.752C109.452 178.006 116.623 178.233 123.247 175.825C125.34 175.046 127.361 174.061 129.286 172.885C129.893 172.574 130.429 172.123 130.853 171.562C131.358 170.791 131.423 169.791 131.418 168.849C131.403 165.673 130.802 162.512 130.945 159.34C131.024 157.582 131.331 155.826 131.18 154.074C130.971 152.084 130.193 150.212 128.953 148.714C127.713 147.216 126.072 146.166 124.254 145.706C122.374 145.274 120.425 145.51 118.512 145.707C113.546 146.218 108.559 146.457 103.57 146.423C98.4728 146.388 93.4069 145.554 88.335 145.467C86.835 145.441 86.8653 145.937 86.3878 147.493C85.948 148.925 85.5883 150.384 85.3106 151.862Z" fill="#2F2E41"/>
<path d="M65.3782 149.28C64.0075 148.911 62.5951 148.75 61.1826 148.802C59.6986 148.89 58.2489 149.315 56.9302 150.05C55.6114 150.785 54.4537 151.813 53.5341 153.064C52.6145 154.316 51.954 155.763 51.5966 157.309C51.2391 158.856 51.1929 160.466 51.461 162.033C51.8033 163.73 52.3627 165.369 53.1235 166.902C54.2361 169.322 55.5706 171.737 57.6305 173.288C58.8354 174.195 60.23 174.761 61.608 175.317L72.4567 179.698C74.0526 180.342 75.6488 180.987 77.2606 181.584C85.3579 184.584 93.8 186.383 102.352 186.931C104.957 187.097 107.601 187.144 110.143 186.508C110.746 186.357 111.389 186.132 111.738 185.584C111.945 185.198 112.067 184.766 112.095 184.322L112.762 179.313C112.856 178.608 112.947 177.865 112.706 177.201C112.4 176.359 111.633 175.83 110.902 175.38C103.77 170.989 95.4423 168.567 89.439 162.541C88.0257 161.122 86.8431 158.873 85.1259 157.91C83.1788 156.817 80.8856 156.193 78.8729 155.186C74.4729 152.985 70.1469 150.455 65.3782 149.28Z" fill="#2F2E41"/>
<path opacity="0.1" d="M76.209 156.033C80.0435 157.321 96.233 166.243 99.0079 169.359C98.636 169.502 86.016 161.922 85.6373 161.8C82.1951 160.693 78.7338 159.578 75.4649 157.958C74.8073 157.632 71.1928 156.099 71.3565 155.21C71.5412 154.206 75.5282 155.804 76.209 156.033Z" fill="black"/>
<path d="M99.3509 78.2328L89.0266 86.6351C89.0266 86.6351 78.1324 87.0004 78.5005 94.4647C78.8687 101.929 83.2288 137.27 83.2288 137.27L84.1748 149.43L102.119 154.911C111.814 157.872 122.058 158.107 131.862 155.594L129.73 143.395C129.73 143.395 138.365 87.9902 133.163 85.5508C127.961 83.1115 124.71 83.8085 124.71 83.8085L118.19 77.7101L99.3509 78.2328Z" fill="#A6A3A3"/>
<path d="M129.912 64.6611C129.912 75.5687 120.502 73.9188 108.894 73.9188C97.287 73.9188 87.8772 75.5687 87.8772 64.6611C87.8772 53.7535 92.4736 34.4189 108.894 34.4189C125.881 34.4189 129.912 53.7535 129.912 64.6611Z" fill="#2F2E41"/>
<path d="M119.82 68.3576C125.343 62.4377 125.343 52.8397 119.82 46.9199C114.297 41 105.342 41 99.8191 46.9199C94.2961 52.8397 94.296 62.4377 99.8191 68.3576C105.342 74.2774 114.297 74.2774 119.82 68.3576Z" fill="#FFB7B7"/>
<path d="M92.4837 57.2548H98.0774L100.545 49.8486L101.039 57.2548H103.712L105.152 52.9345L105.44 57.2548H125.305C125.305 52.9989 123.728 48.9174 120.92 45.908C118.113 42.8987 114.305 41.208 110.334 41.208H107.455C103.484 41.208 99.6764 42.8987 96.8687 45.908C94.0611 48.9174 92.4837 52.9989 92.4837 57.2548Z" fill="#2F2E41"/>
<path d="M123.084 79.9752H94.7993V116.565H123.084V79.9752Z" fill="#3F3D56"/>
<path d="M96.3581 183.855L99.0182 191.275L126.986 183.81L123.06 172.858L96.3581 183.855Z" fill="#FFB7B7"/>
<path d="M97.94 181.032L103.178 195.645L103.178 195.645C104.063 198.115 103.997 200.861 102.994 203.278C101.99 205.695 100.132 207.586 97.8279 208.535L97.5456 208.652L88.9693 184.726L97.94 181.032Z" fill="#2F2E41"/>
<path d="M152.263 146.44C154.51 145.836 156.839 145.665 159.141 145.936C160.98 146.153 162.875 146.702 164.217 148.066C165.852 149.726 166.377 152.294 166.42 154.707C166.492 159.513 165.005 164.197 162.213 167.959C161.531 168.91 160.72 169.747 159.807 170.441C158.822 171.101 157.773 171.643 156.677 172.057L132.382 182.329C125.991 185.031 119.577 187.741 112.91 189.522C112.547 189.71 112.13 189.735 111.75 189.593C111.37 189.451 111.059 189.153 110.884 188.764C110.878 188.752 110.873 188.74 110.868 188.728C108.739 185.469 106.953 181.968 105.543 178.288C105.476 178.201 105.43 178.097 105.409 177.987C105.387 177.876 105.391 177.761 105.419 177.653C105.447 177.544 105.5 177.444 105.572 177.362C105.644 177.279 105.734 177.216 105.833 177.179L123.017 166.596C124.248 165.838 125.493 165.069 126.515 164.013C127.258 163.242 127.866 162.334 128.311 161.333C128.667 160.536 128.7 158.654 129.155 158.065C129.6 157.488 131.124 157.442 131.828 157.215C132.821 156.889 133.793 156.495 134.738 156.035C138.582 154.192 142.005 151.514 145.69 149.356C147.757 148.089 149.966 147.109 152.263 146.44Z" fill="#2F2E41"/>
<path opacity="0.1" d="M142.521 154.343C139.569 156.72 135.746 158.904 132.82 161.344C131.821 162.176 115.174 172.208 114.939 173.54C117.668 174.033 135.058 160.994 137.546 159.693C140.034 158.392 142.239 156.557 144.425 154.736C144.982 154.272 147.342 152.876 145.743 152.358C144.842 152.066 143.186 153.868 142.521 154.343Z" fill="black"/>
<path d="M195.585 62.626C201.196 62.626 205.744 57.7508 205.744 51.7369C205.744 45.723 201.196 40.8478 195.585 40.8478C189.974 40.8478 185.426 45.723 185.426 51.7369C185.426 57.7508 189.974 62.626 195.585 62.626Z" fill="#ADACAC"/>
<path d="M176.783 64.5763C180.719 64.5763 183.91 61.1563 183.91 56.9377C183.91 52.719 180.719 49.2991 176.783 49.2991C172.847 49.2991 169.657 52.719 169.657 56.9377C169.657 61.1563 172.847 64.5763 176.783 64.5763Z" fill="#ADACAC"/>
<path d="M46.2358 59.5934C49.3917 59.5934 51.95 56.8513 51.95 53.4686C51.95 50.086 49.3917 47.3439 46.2358 47.3439C43.0799 47.3439 40.5215 50.086 40.5215 53.4686C40.5215 56.8513 43.0799 59.5934 46.2358 59.5934Z" fill="#ADACAC"/>
<path d="M55.6437 63.712C57.8575 63.712 59.6522 61.7884 59.6522 59.4155C59.6522 57.0426 57.8575 55.119 55.6437 55.119C53.4299 55.119 51.6352 57.0426 51.6352 59.4155C51.6352 61.7884 53.4299 63.712 55.6437 63.712Z" fill="#ADACAC"/>
<path d="M111.077 9.36367C113.489 9.36367 115.445 7.26754 115.445 4.68183C115.445 2.09613 113.489 0 111.077 0C108.664 0 106.709 2.09613 106.709 4.68183C106.709 7.26754 108.664 9.36367 111.077 9.36367Z" fill="#ADACAC"/>
<path opacity="0.17" d="M85.0459 103.323L85.4363 100.093C85.4363 100.093 100.001 101.232 97.7254 105.065C95.4496 108.899 89.9226 109.247 89.9226 109.247L85.0459 103.323Z" fill="#2F2E41"/>
<path d="M96.04 89.277C96.8743 89.3754 97.6779 89.6706 98.3932 90.1413C99.1084 90.6121 99.7176 91.2467 100.177 91.9996C100.596 92.6867 100.88 93.4574 101.014 94.2654C101.148 95.0733 101.128 95.902 100.955 96.7014C100.782 97.5009 100.461 98.2547 100.01 98.9177C99.5585 99.5806 98.987 100.139 98.3294 100.559C98.0883 100.712 97.8366 100.844 97.5766 100.956L88.6241 130.307C88.3647 130.886 88.0011 131.404 87.5541 131.832C87.1071 132.26 86.5856 132.59 86.0196 132.801C85.4535 133.012 84.8541 133.101 84.2558 133.063C83.6575 133.026 83.072 132.861 82.5331 132.58C81.9942 132.299 81.5125 131.906 81.1156 131.425C80.7187 130.944 80.4146 130.383 80.2206 129.775C80.0266 129.167 79.9466 128.524 79.9852 127.883C80.0238 127.242 80.1803 126.615 80.4456 126.039L89.9662 97.014C89.7069 96.0537 89.6724 95.0396 89.8658 94.0616C90.0592 93.0835 90.4746 92.1717 91.0751 91.4067C91.6756 90.6417 92.4428 90.0472 93.3088 89.6757C94.1748 89.3042 95.1128 89.1673 96.04 89.277Z" fill="#FFB7B7"/>
<path d="M85.1795 100.368C85.1795 100.368 90.3092 109.762 97.7254 105.065L90.5381 134.546H84.4827L78.2184 133.292L79.9724 121.112L85.1795 100.368Z" fill="#FF6C6C"/>
<path d="M121.807 106.788L117.557 100.535C117.557 100.535 119.6 94.049 127.519 96.4209C127.519 96.4209 132.559 108.512 121.807 106.788Z" fill="#FF6C6C"/>
<path opacity="0.17" d="M121.807 106.788L117.557 100.535C117.557 100.535 119.6 94.049 127.519 96.4209C127.519 96.4209 132.559 108.512 121.807 106.788Z" fill="#2F2E41"/>
<path d="M122.932 84.9406C124.158 85.5515 125.139 86.6137 125.696 87.9341C126.253 89.2545 126.349 90.7454 125.967 92.1354L135.487 121.161C135.753 121.737 135.909 122.363 135.948 123.004C135.987 123.646 135.907 124.289 135.713 124.896C135.519 125.504 135.214 126.065 134.818 126.547C134.421 127.028 133.939 127.421 133.4 127.702C132.861 127.983 132.276 128.147 131.677 128.185C131.079 128.223 130.479 128.134 129.913 127.922C129.347 127.711 128.826 127.382 128.379 126.954C127.932 126.526 127.568 126.007 127.309 125.428L118.356 96.0772C118.096 95.9658 117.845 95.8332 117.604 95.6805C116.946 95.2603 116.375 94.702 115.923 94.039C115.472 93.3761 115.151 92.6223 114.978 91.8228C114.805 91.0233 114.785 90.1947 114.919 89.3868C115.053 88.5788 115.337 87.8081 115.756 87.121C116.215 86.3681 116.825 85.7335 117.54 85.2627C118.255 84.792 119.059 84.4968 119.893 84.3983C120.933 84.272 121.986 84.4598 122.932 84.9406Z" fill="#FFB7B7"/>
<path d="M117.557 100.535C117.557 100.535 124.569 105.095 127.519 96.421L137.399 124.304L134.463 129.807L134.039 129.845C132.288 130.001 130.527 129.7 128.908 128.966C127.29 128.233 125.861 127.089 124.746 125.633C122.471 122.664 120.922 119.134 120.24 115.362L117.557 100.535Z" fill="#FF6C6C"/>
</g>
<defs>
<clipPath id="clip0_222_250">
<rect width="211" height="209" fill="white"/>
</clipPath>
</defs>
</svg>
