<svg width="324" height="296" viewBox="0 0 324 296" fill="none" xmlns="http://www.w3.org/2000/svg">
<path d="M133.189 0.0827318C133.189 0.0827318 73.9165 -2.77421 46.0656 38.6513C18.2148 80.0768 11.0735 171.499 51.7786 217.209C92.4837 262.92 303.15 237.922 303.865 191.497C304.579 145.072 201.031 111.503 206.029 83.648C211.028 55.7929 223.883 -0.631463 133.189 0.0827318Z" fill="url(#paint0_linear_0_1729)"/>
<path d="M37.3176 184.176C42.1856 183.263 35.4749 177.168 28.7685 172.07C29.8638 176.191 31.1335 180.218 32.5778 184.15C34.4849 184.356 36.1311 184.399 37.3176 184.176Z" fill="#B0D0FF"/>
<path d="M103.731 117.753C109.087 110.253 85.521 125.252 85.521 125.252C85.521 125.252 87.6633 121.502 86.5922 112.931C85.521 104.361 74.2736 130.609 74.2736 130.609C74.2736 130.609 75.8803 119.895 73.738 116.146C71.5956 112.396 60.8837 133.823 60.8837 133.823C60.8837 133.823 65.1684 125.252 62.4905 120.431C59.8125 115.61 46.4227 139.715 46.4227 139.715C46.4227 139.715 48.0295 133.823 46.4227 126.323C45.2139 120.681 36.1267 132.62 31.6978 138.882C31.1171 140.192 30.2985 141.382 29.2837 142.394C29.2837 142.394 30.2401 140.943 31.6978 138.882C32.78 136.579 32.6787 133.895 31.4261 131.68C30.0199 129.102 26.6437 130.486 23.2905 132.858C23.5843 144.822 25.1059 156.724 27.8315 168.376C32.9976 170.078 39.6271 171.87 45.8871 172.391C58.7414 173.463 33.0328 158.999 33.0328 158.999C33.0328 158.999 49.1006 168.106 62.2619 163.143C69.1332 160.552 65.2297 157.938 59.9412 156.024C56.2415 155.407 52.6107 154.43 49.1006 153.107C49.1006 153.107 55.1002 154.273 59.9412 156.024C63.7738 156.643 68.013 156.839 71.5956 155.785C80.7007 153.107 64.0973 145.072 64.0973 145.072C64.0973 145.072 70.5244 148.286 80.1651 147.75C89.8058 147.215 74.2736 138.644 74.2736 138.644C74.2736 138.644 86.5922 143.465 95.1617 143.465C103.731 143.465 84.4498 132.751 84.4498 132.751C84.4498 132.751 98.3752 125.252 103.731 117.753Z" fill="#B0D0FF"/>
<path d="M56.599 66.3278C54.9922 59.8997 38.9244 87.7548 38.9244 87.7548C38.9244 87.7548 40.5312 81.3267 39.46 72.2202C38.9139 67.5783 33.4978 74.4909 28.3179 82.3823C25.7276 93.6467 24.1228 105.115 23.5219 116.658C29.5233 117.363 35.5597 117.729 41.6024 117.753C51.5749 117.753 39.7121 110.1 35.821 107.742C35.1125 107.334 34.6397 107.039 34.6397 107.039C34.6397 107.039 35.1146 107.313 35.821 107.742C38.4994 109.283 45.5372 112.931 52.3142 112.931C60.8837 112.931 42.6735 100.075 42.6735 100.075C42.6735 100.075 53.3854 107.039 63.0261 105.968C72.6668 104.896 52.8498 93.1115 52.8498 93.1115C52.8498 93.1115 65.1684 98.4683 74.8091 100.075C84.4498 101.682 66.7753 88.2905 66.7753 88.2905C66.7753 88.2905 80.1651 95.2543 90.3414 93.6472C100.518 92.0402 75.3447 83.4694 75.3447 83.4694C75.3447 83.4694 86.0566 79.7196 94.6261 66.8635C103.196 54.0073 73.2024 75.97 73.2024 75.97C73.2024 75.97 74.8091 71.1489 72.6668 63.1138C71.1547 57.4426 67.5164 66.6977 65.5016 72.6442C65.2027 74.1587 64.7315 75.6339 64.0973 77.0413C64.0973 77.0413 64.6619 75.123 65.5016 72.6442C65.9839 70.2787 66.1873 67.2425 65.1684 64.1851C63.8452 60.2147 59.4602 66.8693 56.2979 72.5399C55.5512 74.9414 54.3837 77.1911 52.8498 79.184C52.8498 79.184 54.3407 76.0497 56.2979 72.5399C56.8623 70.6245 57.1385 68.4867 56.599 66.3278Z" fill="#B0D0FF"/>
<path d="M134.26 214.71C122.477 202.389 120.335 206.674 120.335 206.674C120.335 206.674 122.477 228.637 113.907 222.745C105.338 216.852 114.443 202.925 101.589 186.855C88.7346 170.784 72.6668 171.856 72.6668 171.856C72.6668 171.856 78.0227 176.141 83.3786 184.712C88.7346 193.283 84.4498 204.532 81.7719 215.781C79.0939 227.03 86.5922 230.78 86.5922 230.78C86.5922 230.78 81.2363 228.101 76.4159 222.209C71.5956 216.317 76.4159 215.245 73.738 191.14C71.06 167.035 53.3854 170.784 53.3854 170.784C55.9728 173.252 57.8827 176.343 58.932 179.761C60.7294 185.524 49.1006 186.855 48.0295 200.782C47.7157 204.861 48.1934 209.442 49.0112 213.885C49.9161 215.01 50.8212 216.134 51.7786 217.209C67.1053 234.421 106.53 241.604 149.768 241.397C145.53 231.649 139.964 220.674 134.26 214.71Z" fill="#B0D0FF"/>
<path d="M267.606 222.408C270.144 217.144 271.922 211.181 270.307 206.473C266.564 195.559 262.267 182.033 262.267 182.033C262.267 182.033 245.663 190.604 245.663 202.925C245.663 215.245 235.487 218.459 235.487 218.459C235.487 218.459 240.843 207.746 236.023 200.246C231.202 192.747 239.772 177.212 239.772 177.212C239.772 177.212 221.562 184.176 222.097 196.497C222.633 208.817 206.029 227.566 199.602 222.209C193.175 216.852 206.029 203.46 206.029 203.46C206.029 203.46 184.07 207.21 174.43 220.066C170.371 225.478 166.702 233.542 163.803 241.073C201.503 239.555 240.393 232.776 267.606 222.408Z" fill="#B0D0FF"/>
<path d="M248.877 154.178C247.23 156.101 261.77 152.393 277.703 149.116C263.775 137.189 246.716 126.259 232.688 116.118L233.345 119.895C233.345 119.895 221.562 111.324 218.348 111.86C215.135 112.396 226.918 122.574 226.918 122.574C226.918 122.574 211.921 119.36 206.565 122.574C201.209 125.788 229.596 130.073 229.596 130.073C229.596 130.073 222.633 133.823 223.704 138.108C224.609 141.729 236.949 137.713 240.766 136.376C241.469 136.115 241.914 135.965 241.914 135.965C241.914 135.965 241.467 136.131 240.766 136.376C237.894 137.445 230.561 140.453 230.131 143.465C229.691 146.55 243.727 142.752 248.727 141.306C249.762 140.957 250.484 140.787 250.484 140.787C250.484 140.787 249.805 140.994 248.727 141.306C246.319 142.117 242.019 144.004 239.772 147.75C236.558 153.107 261.196 144.001 261.196 144.001C261.196 144.001 252.09 150.429 248.877 154.178Z" fill="#B0D0FF"/>
<g style="mix-blend-mode:overlay">
<path d="M27.9447 99.8074C27.9447 99.8074 28.8858 99.2184 30.563 98.2731C32.257 97.3658 34.6255 95.9531 37.5402 94.4384C43.3474 91.3562 51.1918 87.5176 59.0694 83.7987C66.9606 80.1073 74.8833 76.5248 80.7375 73.681C83.6464 72.2302 86.0752 71.0299 87.6641 69.9852C89.1994 68.934 90.0736 68.2027 90.0736 68.2027C90.0736 68.2027 89.9142 68.425 89.6152 68.842C89.2891 69.2274 88.9164 69.9705 88.1973 70.6265C86.2775 72.5194 84.203 74.2485 81.9953 75.7957C76.5633 79.6561 68.8334 83.93 60.8906 87.6748C53.5984 91.0849 46.1255 94.0943 38.5054 96.6897C35.3917 97.7647 32.7193 98.4696 30.8824 99.039C29.0274 99.5671 27.9447 99.8074 27.9447 99.8074Z" fill="black"/>
</g>
<g style="mix-blend-mode:overlay">
<path d="M37.0498 150.429C37.0498 150.429 37.9909 149.84 39.6681 148.894C41.3621 147.987 43.7306 146.574 46.6452 145.06C52.4525 141.977 60.2969 138.139 68.1745 134.42C76.0657 130.728 83.9884 127.146 89.8426 124.302C92.7515 122.851 95.1802 121.651 96.7692 120.606C98.3044 119.555 99.1787 118.824 99.1787 118.824C99.1787 118.824 99.0192 119.046 98.7203 119.463C98.3942 119.849 98.0215 120.592 97.3023 121.248C95.3826 123.141 93.308 124.87 91.1004 126.417C85.6684 130.277 77.9385 134.551 69.9956 138.296C62.7034 141.706 55.2306 144.716 47.6104 147.311C44.4967 148.386 41.8244 149.091 39.9875 149.66C38.1325 150.188 37.0498 150.429 37.0498 150.429Z" fill="black"/>
</g>
<g style="mix-blend-mode:overlay">
<path d="M60.6159 174.802C61.3576 174.964 62.0766 175.217 62.7567 175.554C65.9337 177.079 68.422 179.742 69.7287 183.015C70.3229 184.505 70.6854 186.077 70.8036 187.677C70.9486 189.363 70.8745 191.061 70.5833 192.728C70.4024 193.57 70.2735 194.388 70.0378 195.265L69.389 197.572C68.3605 200.641 67.0648 203.614 65.5165 206.456C64.11 209.128 62.7544 211.416 62.3916 213.43C61.9966 215.446 62.6519 217.32 63.1708 218.59C63.7604 219.871 64.0973 220.602 64.0973 220.602C63.5176 220.118 62.9682 219.6 62.4522 219.049C61.5319 218.003 60.0393 216.155 59.9346 213.306C59.8098 210.466 61.0003 207.611 62.0938 204.868C63.1983 202.103 64.4082 199.211 65.2854 196.348L66.006 194.062C66.2036 193.407 66.3456 192.657 66.5213 191.965C66.8286 190.605 67.0034 189.219 67.0433 187.825C67.1345 185.358 66.6124 182.907 65.5238 180.691C64.6822 179.049 63.5858 177.551 62.2753 176.252C61.7613 175.726 61.2064 175.241 60.6159 174.802V174.802Z" fill="black"/>
</g>
<g style="mix-blend-mode:overlay">
<path d="M90.8769 186.319C90.8476 186.368 91.5058 186.869 92.6217 187.898C94.1957 189.364 95.4735 191.118 96.3853 193.067C97.7684 196.012 98.0698 199.35 97.2367 202.495C96.7105 204.274 96.1434 205.719 95.6451 207.199C95.1245 208.698 94.6981 210.228 94.3683 211.78C93.6225 214.849 93.3781 217.958 93.8104 220.718C94.0271 222.044 94.4117 223.337 94.9549 224.567C95.235 225.16 95.5476 225.738 95.8913 226.297C96.2236 226.856 96.521 227.362 96.875 227.868C98.4007 230.172 100.26 232.236 102.392 233.994C101.625 233.785 100.882 233.497 100.174 233.135C98.2672 232.192 96.5215 230.953 95.0024 229.464C94.5254 229.017 94.0266 228.475 93.5436 227.944C93.0458 227.378 92.5883 226.778 92.1744 226.148C91.233 224.731 90.5391 223.164 90.1224 221.515C89.1747 218.084 89.4408 214.314 90.1913 210.836C90.6085 209.122 91.1328 207.435 91.761 205.786C92.3503 204.131 93.1849 202.621 93.6379 201.395C94.517 198.985 94.6685 196.37 94.0734 193.875C93.6047 191.969 92.8899 190.132 91.9469 188.411C91.5948 187.753 91.3181 187.235 91.1295 186.882C91.0239 186.705 90.9392 186.516 90.8769 186.319V186.319Z" fill="black"/>
</g>
<g style="mix-blend-mode:overlay">
<path d="M259.857 186.587C259.691 186.727 259.551 186.894 259.442 187.081C259.122 187.588 258.831 188.113 258.57 188.652C257.672 190.549 256.996 192.543 256.556 194.595C255.982 197.404 255.872 200.288 256.228 203.133C256.444 204.712 256.784 206.271 257.246 207.797C257.527 209.21 257.597 209.649 257.728 210.726C257.616 211.897 257.62 213.352 257.158 214.31C256.741 215.335 256.311 216.363 255.645 217.157C255.089 218.008 254.425 218.783 253.669 219.462C252.29 220.885 250.692 221.886 249.173 222.788C247.726 223.654 246.206 224.393 244.632 224.996C243.257 225.56 241.853 226.049 240.425 226.459C235.139 227.98 231.47 228.101 231.47 228.101C231.47 228.101 234.792 226.571 239.514 224.173C242.147 222.817 244.69 221.295 247.13 219.616C248.433 218.72 249.64 217.692 250.732 216.548C251.29 216.033 251.771 215.44 252.161 214.789C252.658 214.199 252.846 213.535 253.113 212.904C253.468 212.246 253.296 211.813 253.553 211.253C253.52 210.568 253.294 209.241 253.27 208.925C252.805 207.125 252.539 205.278 252.476 203.42C252.35 200.139 252.947 196.871 254.224 193.846C255.103 191.755 256.339 189.833 257.876 188.165C258.304 187.703 258.777 187.283 259.285 186.911C259.456 186.771 259.649 186.661 259.857 186.587Z" fill="black"/>
</g>
<g style="mix-blend-mode:overlay">
<path d="M224.775 192.479C224.775 192.479 224.665 195.439 224.5 199.878C224.263 204.272 223.946 210.129 223.63 215.987C223.524 216.728 223.46 217.417 223.309 218.197L222.659 220.664C222.125 222.155 221.402 223.571 220.508 224.878C218.928 227.129 216.839 228.974 214.411 230.264C212.772 231.159 211.005 231.795 209.172 232.151C208.49 232.291 207.797 232.37 207.101 232.387C209.23 231.253 211.213 229.862 213.004 228.245C213.817 227.493 214.584 226.693 215.301 225.848C216.043 224.91 216.714 223.918 217.308 222.879C217.568 222.326 217.832 221.765 218.1 221.196C218.29 220.594 218.487 219.993 218.72 219.401L219.135 217.633C219.248 216.976 219.29 216.193 219.378 215.478C219.513 214.041 219.648 212.603 219.781 211.188C219.905 209.727 220.171 208.302 220.382 206.922C220.797 204.406 221.365 201.917 222.085 199.47C222.75 197.057 223.651 194.715 224.775 192.479V192.479Z" fill="black"/>
</g>
<g style="mix-blend-mode:overlay">
<path d="M211.653 123.377C214.357 123.169 217.074 123.185 219.776 123.427C222.538 123.639 225.286 124.011 228.006 124.541C231.135 125.136 234.225 125.92 237.259 126.89C238.813 127.373 240.324 128.016 241.833 128.563C243.341 129.126 244.749 129.887 246.147 130.511C248.66 131.774 251.055 133.26 253.302 134.952C255.225 136.526 256.752 137.889 257.641 139.045C258.569 140.144 259.053 140.787 259.053 140.787C259.053 140.787 258.342 140.392 257.097 139.701C255.932 138.939 254.092 138.126 252.019 137.051C250.927 136.592 249.757 136.09 248.552 135.517C247.303 135.024 245.986 134.503 244.624 133.964C241.858 132.983 238.94 131.875 235.935 130.963C232.965 129.952 229.945 129.063 227.111 128.197C224.262 127.332 221.603 126.526 219.323 125.834C214.741 124.461 211.653 123.377 211.653 123.377Z" fill="black"/>
</g>
<path d="M146.579 245.779C146.579 245.779 131.582 246.136 130.511 256.135C129.44 266.134 133.367 289.704 141.223 284.704C149.078 279.705 140.866 263.277 144.079 258.992C147.293 254.707 153.006 251.135 153.006 251.135L146.579 245.779Z" fill="#FED4D5"/>
<path d="M148.185 20.5276C148.185 20.5276 154.345 11.9568 161.575 16.778C168.806 21.5991 175.233 46.24 187.819 48.6506C200.406 51.0611 191.033 66.06 181.66 64.9886C181.66 64.9886 188.355 66.06 186.748 72.2202C185.141 78.3805 178.714 81.0588 173.894 78.1126C173.894 78.1126 177.107 83.7372 171.752 85.6121C166.396 87.4869 156.487 83.7372 156.487 83.7372L142.026 84.2729C142.026 84.2729 129.44 92.308 125.69 86.9513C121.941 81.5945 124.619 77.0413 124.619 77.0413C124.619 77.0413 119.263 82.3981 114.711 78.1126C110.158 73.8272 113.64 68.2027 116.585 66.5956C116.585 66.5956 107.213 70.6132 104.267 64.1851C101.321 57.757 102.928 53.2038 109.087 49.9898C115.246 46.7757 128.369 36.33 129.707 28.8306C131.046 21.3312 140.419 6.33229 148.185 20.5276Z" fill="#2F3655"/>
<g style="mix-blend-mode:overlay">
<path d="M169.788 44.3652C159.433 30.0804 162.289 24.0095 157.469 24.5452C152.649 25.0809 150.328 29.7233 150.328 29.7233C150.328 29.7233 145.865 20.6168 139.08 24.3665C132.296 28.1163 130.511 56.8641 114.265 60.2567C109.707 61.2086 106.205 61.7864 103.481 62.1374C103.702 62.835 103.964 63.5188 104.267 64.1851C107.213 70.6132 116.585 66.5956 116.585 66.5956C113.64 68.2027 110.158 73.8273 114.711 78.1127C119.263 82.3981 124.619 77.0413 124.619 77.0413C124.619 77.0413 121.941 81.5945 125.69 86.9513C129.44 92.308 142.026 84.2729 142.026 84.2729L156.487 83.7372C156.487 83.7372 166.396 87.4869 171.752 85.6121C177.107 83.7372 173.894 78.1127 173.894 78.1127C178.714 81.0588 185.141 78.3805 186.748 72.2202C188.355 66.06 181.66 64.9886 181.66 64.9886C188.3 65.7477 194.899 58.4533 193.732 53.2713C189.423 54.3214 178.033 55.7396 169.788 44.3652Z" fill="#231F20"/>
</g>
<path d="M124.182 82.2195H177.902C179.139 82.2195 180.143 83.2229 180.143 84.4606V183.185C180.143 183.779 179.906 184.349 179.486 184.77C179.066 185.19 178.496 185.426 177.902 185.426H124.182C123.588 185.426 123.018 185.19 122.598 184.77C122.177 184.349 121.941 183.779 121.941 183.185V84.4607C121.941 83.8663 122.177 83.2962 122.598 82.8759C123.018 82.4556 123.588 82.2195 124.182 82.2195Z" fill="#FF6C6C"/>
<g style="mix-blend-mode:overlay" opacity="0.41">
<path d="M161.932 81.8623C145.861 81.8623 132.832 94.8931 132.832 110.967V122.507L141.937 134.269C141.937 134.269 145.686 136.144 156.13 142.572C166.574 149 160.147 153.286 153.452 155.16C146.757 157.035 155.059 161.053 164.164 165.07C171.665 168.38 149.19 174.231 141.034 176.191C149.273 184.721 161.864 187.393 172.856 182.946C183.848 178.499 191.04 167.823 191.033 155.964V110.967C191.033 103.248 187.967 95.8452 182.51 90.3869C177.052 84.9287 169.65 81.8623 161.932 81.8623Z" fill="#231F20"/>
</g>
<path d="M239.772 161.142C239.772 161.142 230.131 163.285 208.172 170.784C186.213 178.284 174.965 178.819 174.965 178.819L138.277 181.23C138.277 181.23 113.372 158.464 102.124 157.928C90.8769 157.392 79.6295 167.035 80.1651 175.605C80.7007 184.176 90.8769 233.994 127.833 235.065C164.789 236.137 176.572 237.208 199.602 222.209C222.633 207.21 264.409 176.141 239.772 161.142Z" fill="#212638"/>
<path d="M185.855 262.92C185.855 262.92 195.496 267.92 195.853 276.134C196.21 284.347 187.998 293.632 195.496 295.775C202.994 297.918 214.778 267.92 209.422 264.706C204.066 261.492 191.568 256.849 191.568 256.849L185.855 262.92Z" fill="#FED4D5"/>
<path d="M143.365 245.243C143.365 245.243 233.345 129.002 252.626 167.57C271.907 206.139 149.257 255.421 149.257 255.421L143.365 245.243Z" fill="#2F3655"/>
<g style="mix-blend-mode:overlay" opacity="0.58">
<path d="M247.548 161.718C221.13 144.813 143.365 245.243 143.365 245.243L149.257 255.421C149.257 255.421 158.037 251.884 170.487 246C185.799 221.764 218.989 173.585 247.548 161.718Z" fill="#231F20"/>
</g>
<path d="M133.01 90.7903C133.784 89.9675 120.156 96.5042 113.372 113.646C106.588 130.787 91.9481 159.714 96.2329 175.784C100.518 191.854 106.945 193.997 119.085 187.926C131.225 181.855 116.228 108.646 133.01 90.7903Z" fill="#FF6C6C"/>
<path d="M78.5583 162.749C78.5583 162.749 82.843 147.215 99.982 150.964C117.121 154.714 199.602 259.706 199.602 259.706L192.104 268.277C192.104 268.277 68.9176 212.031 78.5583 162.749Z" fill="#2F3655"/>
<path d="M169.914 87.5762C169.14 86.7534 182.768 93.2901 189.552 110.432C196.336 127.573 210.976 156.5 206.691 172.57C202.406 188.64 195.979 190.783 183.839 184.712C171.699 178.641 186.696 105.432 169.914 87.5762Z" fill="#FF6C6C"/>
<rect x="142.294" y="67.667" width="18.2102" height="28.3907" fill="#F2B3BB"/>
<path d="M162.646 45.7043C159.701 39.2762 160.772 29.0984 155.148 30.1698C149.524 31.2412 149.257 34.4552 149.257 34.4552C149.257 34.4552 147.65 29.6341 144.704 30.1698C141.758 30.7054 136.938 32.5803 136.135 42.4903C135.331 52.4002 140.152 56.15 132.118 59.0962C130.334 59.7249 128.681 60.6779 127.244 61.9072C130.207 73.6033 139.355 82.1302 150.194 82.1302C163.296 82.1302 173.926 69.6716 174.142 54.2126C170.19 52.6364 164.504 49.7578 162.646 45.7043Z" fill="#FED4D5"/>
<path d="M184.874 81.0588L178.982 78.1127C178.982 78.1127 165.458 77.1752 152.47 86.4157C152.47 86.4157 135.867 76.6396 125.557 79.318L119.263 81.7285L119.799 91.9063L149.926 96.0577C149.926 96.0577 184.07 88.8262 184.07 88.4244C184.07 88.0226 184.874 81.0588 184.874 81.0588Z" fill="white"/>
<path d="M267.89 202.116C267.89 202.116 270.718 208.043 267.277 211.233L313.693 211.222L313.564 202.695L267.89 202.116Z" fill="white"/>
<path d="M267.25 171.323C267.25 171.323 270.078 177.251 266.637 180.441L313.053 180.43L312.925 171.903L267.25 171.323Z" fill="white"/>
<path d="M265.955 168.005L265.947 171.794L312.925 171.902L312.906 179.955L265.928 179.847L265.92 183.636L317.782 183.756L317.782 183.608L317.791 179.967L317.809 171.914L317.818 168.124L265.955 168.005Z" fill="#4F64B1"/>
<path d="M269.673 173.461L311.323 173.557L269.673 173.461Z" fill="#CAE0FF"/>
<path d="M269.672 173.816L269.674 173.105L311.323 173.202L311.322 173.912L269.672 173.816Z" fill="#162659"/>
<path d="M269.668 175.686L311.317 175.783L269.668 175.686Z" fill="#CAE0FF"/>
<path d="M269.667 176.045L269.668 175.327L311.318 175.424L311.317 176.142L269.667 176.045Z" fill="#162659"/>
<path d="M269.663 177.813L311.313 177.909L269.663 177.813Z" fill="#CAE0FF"/>
<path d="M269.662 178.168L269.664 177.458L311.313 177.554L311.312 178.264L269.662 178.168Z" fill="#162659"/>
<path d="M270.222 204.904L270.223 204.193L311.873 204.29L311.872 205L270.222 204.904Z" fill="#A29B00"/>
<path d="M270.217 207.124L270.218 206.414L311.868 206.51L311.867 207.221L270.217 207.124Z" fill="#A29B00"/>
<path d="M270.212 209.256L270.213 208.546L311.863 208.642L311.861 209.352L270.212 209.256Z" fill="#A29B00"/>
<path d="M273.135 186.969C273.135 186.969 275.963 192.897 272.522 196.087L318.937 196.075L318.809 187.548L273.135 186.969Z" fill="white"/>
<path d="M271.84 183.65L271.831 187.44L318.809 187.548L318.791 195.602L271.813 195.493L271.804 199.282L323.666 199.402L323.666 199.254L323.675 195.613L323.693 187.56L323.702 183.77L271.84 183.65Z" fill="#00F7E5"/>
<path d="M275.557 189.462L275.558 188.751L317.208 188.847L317.206 189.558L275.557 189.462Z" fill="#162659"/>
<path d="M275.552 191.679L275.553 190.968L317.203 191.065L317.201 191.775L275.552 191.679Z" fill="#162659"/>
<path d="M275.547 193.822L275.548 193.104L317.198 193.201L317.196 193.919L275.547 193.822Z" fill="#162659"/>
<path d="M266.595 198.797L266.586 202.586L313.564 202.695L313.546 210.748L266.568 210.639L266.559 214.429L318.421 214.549L318.421 214.401L318.43 210.759L318.448 202.706L318.457 198.917L266.595 198.797Z" fill="#859CE8"/>
<path d="M260.124 158.882C260.124 158.882 262.952 164.81 259.511 168L305.927 167.989L305.799 159.462L260.124 158.882Z" fill="white"/>
<path d="M259.485 128.09C259.485 128.09 262.313 134.018 258.872 137.208L305.288 137.196L305.159 128.669L259.485 128.09Z" fill="white"/>
<path d="M258.19 124.771L258.181 128.561L305.159 128.669L305.141 136.722L258.163 136.614L258.154 140.403L310.017 140.523L310.017 140.375L310.025 136.734L310.044 128.68L310.052 124.891L258.19 124.771Z" fill="#4F64B1"/>
<path d="M261.907 130.227L303.557 130.324L261.907 130.227Z" fill="#CAE0FF"/>
<path d="M261.906 130.583L261.908 129.872L303.558 129.968L303.556 130.679L261.906 130.583Z" fill="#162659"/>
<path d="M261.902 132.453L303.552 132.55L261.902 132.453Z" fill="#CAE0FF"/>
<path d="M261.901 132.811L261.903 132.094L303.553 132.191L303.551 132.909L261.901 132.811Z" fill="#162659"/>
<path d="M261.897 134.58L303.547 134.676L261.897 134.58Z" fill="#CAE0FF"/>
<path d="M261.897 134.935L261.898 134.224L303.548 134.321L303.546 135.031L261.897 134.935Z" fill="#162659"/>
<path d="M262.456 161.671L262.458 160.96L304.108 161.056L304.106 161.767L262.456 161.671Z" fill="#A29B00"/>
<path d="M262.451 163.891L262.453 163.181L304.103 163.277L304.101 163.987L262.451 163.891Z" fill="#A29B00"/>
<path d="M262.446 166.023L262.448 165.312L304.098 165.409L304.096 166.119L262.446 166.023Z" fill="#A29B00"/>
<path d="M265.369 143.736C265.369 143.736 268.197 149.664 264.756 152.853L311.172 152.842L311.044 144.315L265.369 143.736Z" fill="white"/>
<path d="M264.075 140.417L264.066 144.206L311.044 144.315L311.025 152.368L264.047 152.259L264.038 156.049L315.901 156.169L315.901 156.021L315.909 152.38L315.928 144.327L315.937 140.537L264.075 140.417Z" fill="#FF6C6C"/>
<path d="M267.791 146.229L267.793 145.518L309.443 145.614L309.441 146.325L267.791 146.229Z" fill="#162659"/>
<path d="M267.786 148.449L267.788 147.738L309.438 147.835L309.436 148.545L267.786 148.449Z" fill="#162659"/>
<path d="M267.781 150.588L267.783 149.871L309.433 149.968L309.431 150.686L267.781 150.588Z" fill="#162659"/>
<path d="M258.829 155.563L258.821 159.353L305.799 159.461L305.78 167.515L258.802 167.406L258.793 171.196L310.656 171.315L310.656 171.168L310.665 167.526L310.683 159.473L310.692 155.683L258.829 155.563Z" fill="#2F3655"/>
<path d="M57.0469 202.036C57.0469 202.036 54.2392 207.974 57.6913 211.152L11.2756 211.3L11.3746 202.772L57.0469 202.036Z" fill="white"/>
<path d="M57.5806 171.242C57.5806 171.242 54.7729 177.18 58.2249 180.357L11.8093 180.505L11.9084 171.978L57.5806 171.242Z" fill="white"/>
<path d="M58.8641 167.919L58.8858 171.708L11.9085 171.978L11.9547 180.031L58.932 179.761L58.9538 183.551L7.09203 183.849L7.09137 183.701L7.07026 180.059L7.02406 172.006L7.00229 168.217L58.8641 167.919Z" fill="#4F64B1"/>
<path d="M55.1655 173.388L13.5163 173.627L55.1655 173.388Z" fill="#CAE0FF"/>
<path d="M13.5143 173.272L55.1635 173.033L55.1676 173.743L13.5184 173.982L13.5143 173.272Z" fill="#162659"/>
<path d="M55.1783 175.612L13.5291 175.854L55.1783 175.612Z" fill="#CAE0FF"/>
<path d="M13.527 175.495L55.1763 175.253L55.1803 175.971L13.5311 176.213L13.527 175.495Z" fill="#162659"/>
<path d="M55.1905 177.74L13.5414 177.979L55.1905 177.74Z" fill="#CAE0FF"/>
<path d="M13.5393 177.624L55.1885 177.385L55.1925 178.095L13.5434 178.334L13.5393 177.624Z" fill="#162659"/>
<path d="M13.0711 204.361L54.7203 204.122L54.7244 204.833L13.0752 205.072L13.0711 204.361Z" fill="#A29B00"/>
<path d="M13.0838 206.582L54.733 206.343L54.7371 207.053L13.0879 207.292L13.0838 206.582Z" fill="#A29B00"/>
<path d="M13.0961 208.713L54.7452 208.474L54.7493 209.185L13.1002 209.424L13.0961 208.713Z" fill="#A29B00"/>
<path d="M51.75 186.908C51.75 186.908 48.9423 192.846 52.3944 196.023L5.97872 196.171L6.0778 187.644L51.75 186.908Z" fill="white"/>
<path d="M53.0334 183.585L53.0552 187.374L6.07781 187.644L6.124 195.697L53.1014 195.427L53.1231 199.217L1.26169 199.515L1.2607 199.366L1.23991 195.725L1.19372 187.672L1.17194 183.883L53.0334 183.585Z" fill="#00F7E5"/>
<path d="M7.68327 188.938L49.3324 188.699L49.3365 189.409L7.68734 189.648L7.68327 188.938Z" fill="#162659"/>
<path d="M7.69603 191.158L49.3452 190.919L49.3493 191.629L7.70011 191.869L7.69603 191.158Z" fill="#162659"/>
<path d="M7.70829 193.292L49.3575 193.051L49.3615 193.768L7.71237 194.01L7.70829 193.292Z" fill="#162659"/>
<path d="M58.3302 198.713L58.352 202.503L11.3746 202.772L11.4208 210.825L58.3982 210.555L58.42 214.345L6.55852 214.643L6.55753 214.495L6.53675 210.853L6.49056 202.8L6.46878 199.011L58.3302 198.713Z" fill="#859CE8"/>
<path d="M64.6641 158.777C64.6641 158.777 61.8564 164.714 65.3085 167.892L18.8928 168.04L18.9918 159.513L64.6641 158.777Z" fill="white"/>
<path d="M65.1978 127.983C65.1978 127.983 62.3901 133.92 65.8421 137.098L19.4265 137.246L19.5256 128.718L65.1978 127.983Z" fill="white"/>
<path d="M66.4814 124.659L66.5032 128.449L19.5255 128.718L19.5717 136.771L66.5493 136.502L66.5711 140.291L14.7093 140.589L14.7084 140.441L14.6876 136.8L14.6414 128.746L14.6196 124.957L66.4814 124.659Z" fill="#4F64B1"/>
<path d="M62.7827 130.128L21.1335 130.367L62.7827 130.128Z" fill="#CAE0FF"/>
<path d="M21.1315 130.012L62.7807 129.773L62.7848 130.483L21.1356 130.723L21.1315 130.012Z" fill="#162659"/>
<path d="M62.7955 132.349L21.1463 132.588L62.7955 132.349Z" fill="#CAE0FF"/>
<path d="M21.1443 132.233L62.7934 131.993L62.7975 132.704L21.1484 132.943L21.1443 132.233Z" fill="#162659"/>
<path d="M62.8077 134.48L21.1586 134.719L62.8077 134.48Z" fill="#CAE0FF"/>
<path d="M21.1565 134.364L62.8057 134.125L62.8097 134.836L21.1606 135.075L21.1565 134.364Z" fill="#162659"/>
<path d="M20.6883 161.102L62.3375 160.863L62.3416 161.573L20.6924 161.812L20.6883 161.102Z" fill="#A29B00"/>
<path d="M20.701 163.322L62.3502 163.083L62.3543 163.794L20.7051 164.033L20.701 163.322Z" fill="#A29B00"/>
<path d="M20.7133 165.454L62.3624 165.215L62.3665 165.925L20.7173 166.164L20.7133 165.454Z" fill="#A29B00"/>
<path d="M59.3672 143.649C59.3672 143.649 56.5595 149.586 60.0116 152.764L13.596 152.912L13.695 144.384L59.3672 143.649Z" fill="white"/>
<path d="M60.6507 140.325L60.6725 144.115L13.6951 144.384L13.7413 152.437L60.7187 152.167L60.7404 155.957L8.87866 156.255L8.878 156.107L8.85688 152.465L8.81069 144.412L8.78892 140.623L60.6507 140.325Z" fill="#FF6C6C"/>
<path d="M15.3005 145.678L56.9497 145.439L56.9538 146.149L15.3046 146.388L15.3005 145.678Z" fill="#162659"/>
<path d="M15.3133 147.898L56.9624 147.659L56.9665 148.37L15.3173 148.609L15.3133 147.898Z" fill="#162659"/>
<path d="M15.3255 150.03L56.9746 149.791L56.9787 150.501L15.3296 150.741L15.3255 150.03Z" fill="#162659"/>
<path d="M65.9475 155.453L65.9693 159.243L18.9919 159.513L19.0381 167.566L66.0155 167.296L66.0373 171.085L14.1755 171.383L14.1748 171.235L14.1537 167.594L14.1075 159.541L14.0858 155.751L65.9475 155.453Z" fill="#2F3655"/>
<g style="mix-blend-mode:overlay" opacity="0.58">
<path d="M97.3041 191.497C107.659 203.282 118.014 193.997 128.726 194.711C137.849 195.319 183.464 247.446 196.804 262.905L199.602 259.706C199.602 259.706 117.121 154.714 99.982 150.964C89.1166 148.587 83.4278 153.956 80.7114 158.208C89.1932 164.166 88.6012 181.592 97.3041 191.497Z" fill="#231F20"/>
</g>
<path d="M187.016 79.4518L154.613 87.7546V146.143L184.8 134.358L187.016 79.4518Z" fill="#859CE8"/>
<path d="M115.782 79.7197L148.052 88.0225V146.411L117.988 134.626L115.782 79.7197Z" fill="#859CE8"/>
<rect x="147.382" y="87.4869" width="8.03388" height="59.7277" fill="#6C88D8"/>
<path d="M259.898 39.1583L254.438 39.7513C254.438 39.7513 244.534 45.1966 239.597 57.5357C239.597 57.5357 223.546 58.1741 217.526 64.7043L214.201 69.2341L219.168 76.128L242.163 65.4437C242.163 65.4437 262.838 44.9663 262.657 44.6847C262.476 44.403 259.898 39.1583 259.898 39.1583Z" fill="white"/>
<path d="M260.674 37.065L241.703 57.5078L268.042 98.4433L283.89 76.5591L260.674 37.065V37.065Z" fill="#2F3655"/>
<path d="M210.854 69.3967L237.224 60.6562L263.563 101.592L237.17 106.895L210.854 69.3967Z" fill="#2F3655"/>
<path d="M236.512 60.5829L242.145 56.9576L269.089 98.8317L263.457 102.457L236.512 60.5829Z" fill="#1A2138"/>
<path d="M57.5983 59.8412L56.5599 55.4526C56.5599 55.4526 51.1164 47.9358 40.5622 45.1677C40.5622 45.1677 38.4093 32.1533 32.4772 27.9119L28.4488 25.6635L23.338 30.4121L34.3811 48.0632C34.3811 48.0632 53.166 62.8283 53.3771 62.652C53.5881 62.4756 57.5983 59.8412 57.5983 59.8412Z" fill="white"/>
<path d="M59.3827 60.2616L40.7993 46.8812L10.1311 72.5091L29.5711 83.1971L59.3827 60.2616Z" fill="#FF6C6C"/>
<path d="M27.9758 22.9527L37.7787 43.5516L7.11051 69.1795L0.105247 48.2117L27.9758 22.9527Z" fill="#FF6C6C"/>
<path d="M37.7663 42.9646L41.2925 47.1857L9.92082 73.4014L6.3946 69.1804L37.7663 42.9646Z" fill="#FF6C6C"/>
<path d="M124.578 118.946C124.578 118.946 120.718 111.661 121.848 108.804C122.977 105.947 125.64 106.776 125.64 106.776C125.64 106.776 119.647 96.1929 126.577 96.3887C133.507 96.5845 134.528 101.452 134.457 106.602C134.385 111.752 130.203 120.411 130.203 120.411L124.578 118.946Z" fill="#FED4D5"/>
<path d="M120.239 124.729L121.864 114.747L133.925 116.302L131.207 126.566L120.239 124.729Z" fill="#2F3655"/>
<path d="M98.3843 184.165C93.1526 177.539 104.385 130.883 115.451 125.069C126.556 119.236 132.963 119.271 136.929 126.062C140.895 132.853 140.331 183.021 124.534 191.068C108.099 199.44 98.1707 185.572 98.3843 184.165Z" fill="#FF6C6C"/>
<path d="M174.303 116.602C174.303 116.602 177.899 109.183 176.668 106.369C175.437 103.554 172.806 104.479 172.806 104.479C172.806 104.479 178.415 93.6872 171.497 94.1316C164.578 94.5761 163.732 99.4776 163.989 104.622C164.245 109.766 168.735 118.268 168.735 118.268L174.303 116.602Z" fill="#FED4D5"/>
<path d="M204.944 180.227C209.926 171.54 196.814 127.524 185.766 121.782C174.636 115.997 168.057 116.616 164.338 123.546C160.618 130.475 161.587 185.061 179.059 188.065C195.379 190.87 200.406 187.524 204.944 180.227Z" fill="#FF6C6C"/>
<path d="M178.848 122.227L176.866 112.309L164.868 114.296L167.953 124.456L178.848 122.227Z" fill="#2F3655"/>
<path d="M204.944 180.227C209.926 171.54 196.814 127.524 185.766 121.782C174.636 115.997 168.057 116.616 164.338 123.546C160.618 130.475 161.587 185.061 179.059 188.065C195.379 190.87 200.406 187.524 204.944 180.227Z" fill="#FF6C6C"/>
<g style="mix-blend-mode:overlay">
<path d="M164.789 61.9085C167.377 61.9085 169.475 60.9492 169.475 59.7658C169.475 58.5824 167.377 57.6231 164.789 57.6231C162.201 57.6231 160.102 58.5824 160.102 59.7658C160.102 60.9492 162.201 61.9085 164.789 61.9085Z" fill="#231F20"/>
</g>
<g style="mix-blend-mode:overlay">
<path d="M138.143 62.9799C140.583 62.9799 142.562 62.0205 142.562 60.8372C142.562 59.6538 140.583 58.6944 138.143 58.6944C135.703 58.6944 133.724 59.6538 133.724 60.8372C133.724 62.0205 135.703 62.9799 138.143 62.9799Z" fill="#231F20"/>
</g>
<g style="mix-blend-mode:overlay" opacity="0.58">
<path d="M173.358 152.036C168.345 134.174 172.316 123.865 176.633 118.301C170.839 117.081 166.891 118.789 164.338 123.546C160.618 130.475 161.588 185.061 179.059 188.065C185.911 189.243 190.756 189.324 194.427 188.496C188.628 183.356 179.053 172.327 173.358 152.036Z" fill="#231F20"/>
</g>
<g style="mix-blend-mode:overlay" opacity="0.58">
<path d="M136.929 126.062C133.591 120.345 128.482 119.471 120.338 122.8C123.743 128.063 127.936 136.508 128.101 145.875C128.315 158.074 125.241 180.333 109.394 193.034C113.472 194.197 118.567 194.107 124.534 191.068C140.331 183.021 140.895 132.853 136.929 126.062Z" fill="#231F20"/>
</g>
<defs>
<linearGradient id="paint0_linear_0_1729" x1="23.2109" y1="241.405" x2="303.868" y2="241.405" gradientUnits="userSpaceOnUse">
<stop stop-color="white"/>
<stop offset="1" stop-color="#DBEAFF"/>
</linearGradient>
</defs>
</svg>
