<svg width="378" height="265" viewBox="0 0 378 265" fill="none" xmlns="http://www.w3.org/2000/svg">
<g clip-path="url(#clip0_217_101)">
<path d="M366.367 80.5239C361.174 74.2827 353.811 86.3975 345.677 101.058C341.219 109.092 331.347 115.94 327.036 126.033C322.844 135.859 324.361 148.553 321.006 157.515C316.051 170.733 311.979 170.622 308.045 177.47C306.308 173.518 304.782 168.793 305.058 163.931C305.416 157.754 315.491 151.834 315.72 143.993C315.895 137.32 306.262 129.048 306.308 121.694C306.308 114.699 316.088 108.338 315.959 101.169C315.831 93.9991 305.848 86.2228 305.481 79.2646C305.104 71.7733 314.342 64.6772 313.671 57.9947C312.862 49.9519 302.181 43.3797 300.857 37.3499C298.412 26.237 299.129 13.7912 294.506 14.0027C290.149 14.2049 292.667 27.7077 290.673 39.3445C289.579 45.7788 279.091 51.5513 278.54 60.1273C278.08 67.3153 287.566 76.36 287.41 84.4212C287.263 91.9494 277.455 98.7973 277.51 106.601C277.565 114.405 287.483 122.88 287.676 130.5C287.888 138.552 278.374 145.813 278.668 153.121C278.824 156.853 280.828 160.53 283.071 164.05C280.268 160.281 276.637 156.402 275.24 151.944C273.199 145.565 276.37 137.421 273.797 131.208C271.039 124.47 262.812 120.481 259.476 115.205C255.018 108.173 253.188 98.7973 247.866 97.0876C239.667 94.4403 240.908 104.735 244.089 117.567C245.771 124.369 243.068 133.91 246.598 142.606C249.622 150.069 258.474 155.906 262.224 163.59C265.974 171.275 264.917 181.423 268.842 188.353C272.114 194.117 277.482 198.069 281.867 201.645L282.124 202.352C282.267 202.504 282.442 202.621 282.636 202.696C282.83 202.771 283.038 202.801 283.246 202.784C284.724 203.98 286.071 205.329 287.263 206.81C289.487 209.752 287.005 215.497 288.43 216.921C292.346 220.865 292.548 217.638 292.309 214.228C292.171 212.252 296.739 209.072 296.464 206.121C296.666 205.785 296.964 205.517 297.318 205.349C298.863 205 305.922 210.974 306.878 209.026C307.586 207.61 299.028 201.672 299.524 199.834C299.874 198.538 305.876 198.979 308.716 198.409C308.8 198.468 308.875 198.539 308.937 198.621C309.773 199.705 310.196 204.522 312.614 203.63C315.831 202.435 320.169 187.498 329.214 173.196C334.665 164.574 345.612 157.818 350.888 147.56C356.165 137.302 355.631 123.863 359.032 114.24C364.281 99.358 371.12 86.2596 366.367 80.5239ZM289.515 176.67C289.901 183.96 287.428 186.781 285.066 189.328C283.613 181.055 289.285 181.055 286.472 170.209C286.205 169.247 285.822 168.321 285.332 167.451C287.483 170.742 289.367 173.849 289.515 176.67ZM293.127 201.286C293.268 201.506 293.363 201.752 293.405 202.01C293.448 202.267 293.438 202.531 293.375 202.784C292.456 202.26 291.537 201.755 290.691 201.231C291.886 200.992 292.814 200.918 293.127 201.286Z" fill="#04A4A8"/>
<path opacity="0.5" d="M366.367 80.5239C361.174 74.2827 353.811 86.3975 345.677 101.058C341.219 109.092 331.347 115.94 327.036 126.033C322.844 135.859 324.361 148.553 321.006 157.515C316.051 170.733 311.979 170.622 308.045 177.47C306.308 173.518 304.782 168.793 305.058 163.931C305.416 157.754 315.491 151.834 315.72 143.993C315.895 137.32 306.262 129.048 306.308 121.694C306.308 114.699 316.088 108.338 315.959 101.169C315.831 93.9991 305.848 86.2228 305.481 79.2646C305.104 71.7733 314.342 64.6772 313.671 57.9947C312.862 49.9519 302.181 43.3797 300.857 37.3499C298.412 26.237 299.129 13.7912 294.506 14.0027C290.149 14.2049 292.667 27.7077 290.673 39.3445C289.579 45.7788 279.091 51.5513 278.54 60.1273C278.08 67.3153 287.566 76.36 287.41 84.4212C287.263 91.9494 277.455 98.7973 277.51 106.601C277.565 114.405 287.483 122.88 287.676 130.5C287.888 138.552 278.374 145.813 278.668 153.121C278.824 156.853 280.828 160.53 283.071 164.05C280.268 160.281 276.637 156.402 275.24 151.944C273.199 145.565 276.37 137.421 273.797 131.208C271.039 124.47 262.812 120.481 259.476 115.205C255.018 108.173 253.188 98.7973 247.866 97.0876C239.667 94.4403 240.908 104.735 244.089 117.567C245.771 124.369 243.068 133.91 246.598 142.606C249.622 150.069 258.474 155.906 262.224 163.59C265.974 171.275 264.917 181.423 268.842 188.353C272.114 194.117 277.482 198.069 281.867 201.645L282.124 202.352C282.267 202.504 282.442 202.621 282.636 202.696C282.83 202.771 283.038 202.801 283.246 202.784C284.724 203.98 286.071 205.329 287.263 206.81C289.487 209.752 287.005 215.497 288.43 216.921C292.346 220.865 292.548 217.638 292.309 214.228C292.171 212.252 296.739 209.072 296.464 206.121C296.666 205.785 296.964 205.517 297.318 205.349C298.863 205 305.922 210.974 306.878 209.026C307.586 207.61 299.028 201.672 299.524 199.834C299.874 198.538 305.876 198.979 308.716 198.409C308.8 198.468 308.875 198.539 308.937 198.621C309.773 199.705 310.196 204.522 312.614 203.63C315.831 202.435 320.169 187.498 329.214 173.196C334.665 164.574 345.612 157.818 350.888 147.56C356.165 137.302 355.631 123.863 359.032 114.24C364.281 99.358 371.12 86.2596 366.367 80.5239ZM289.515 176.67C289.901 183.96 287.428 186.781 285.066 189.328C283.613 181.055 289.285 181.055 286.472 170.209C286.205 169.247 285.822 168.321 285.332 167.451C287.483 170.742 289.367 173.849 289.515 176.67ZM293.127 201.286C293.268 201.506 293.363 201.752 293.405 202.01C293.448 202.267 293.438 202.531 293.375 202.784C292.456 202.26 291.537 201.755 290.691 201.231C291.886 200.992 292.814 200.918 293.127 201.286Z" fill="white"/>
<path d="M290.158 211.305C290.158 211.305 291.022 208.465 284.974 205.082C282.544 203.639 280.04 202.323 277.473 201.139C277.473 201.139 278.898 205.395 282.023 207.656C285.149 209.917 286.481 210.947 286.481 210.947C283.958 209.716 281.207 209.018 278.402 208.897C275.871 208.829 273.379 209.534 271.26 210.919C273.895 212.306 276.612 213.534 279.395 214.596C282.713 215.766 286.199 216.386 289.717 216.434C289.717 216.434 281.83 215.515 280.286 217.05C278.845 218.73 277.568 220.542 276.472 222.464C279.723 222.188 282.993 222.203 286.242 222.51C290.425 223.062 295.958 220.957 295.958 220.957L300.683 223.301L302.668 220.35C302.668 220.35 303.78 220.249 307.54 222.188C311.008 223.811 314.587 225.187 318.248 226.306L311.217 217.289L318.322 218.962C321.879 219.799 327.606 218.824 327.606 218.824C327.606 218.824 327.063 217.032 323.166 215.534C319.269 214.035 311.823 211.701 311.823 211.701C311.823 211.701 317.954 212.997 322.026 210.331C324.516 208.683 326.765 206.697 328.709 204.43C328.709 204.43 322.899 201.01 317.421 202.205C313.698 203.177 310.213 204.9 307.181 207.27C307.181 207.27 310.766 204.411 311.915 200.615C312.571 198.545 313.032 196.419 313.294 194.264C313.294 194.264 306.648 196.479 304.957 198.473C303.266 200.468 300.416 206.259 300.416 206.259C300.416 206.259 303.266 200.468 299.938 197.067C296.611 193.666 293.807 191.019 293.807 191.019C293.807 191.019 291.004 195.091 290.425 198.372C289.846 201.654 294.055 207.509 294.055 207.509L290.305 205.542L290.158 211.305Z" fill="#04A4A8"/>
<path opacity="0.3" d="M290.158 211.305C290.158 211.305 291.022 208.465 284.974 205.082C282.544 203.639 280.04 202.323 277.473 201.139C277.473 201.139 278.898 205.395 282.023 207.656C285.149 209.917 286.481 210.947 286.481 210.947C283.958 209.716 281.207 209.018 278.402 208.897C275.871 208.829 273.379 209.534 271.26 210.919C273.895 212.306 276.612 213.534 279.395 214.596C282.713 215.766 286.199 216.386 289.717 216.434C289.717 216.434 281.83 215.515 280.286 217.05C278.845 218.73 277.568 220.542 276.472 222.464C279.723 222.188 282.993 222.203 286.242 222.51C290.425 223.062 295.958 220.957 295.958 220.957L300.683 223.301L302.668 220.35C302.668 220.35 303.78 220.249 307.54 222.188C311.008 223.811 314.587 225.187 318.248 226.306L311.217 217.289L318.322 218.962C321.879 219.799 327.606 218.824 327.606 218.824C327.606 218.824 327.063 217.032 323.166 215.534C319.269 214.035 311.823 211.701 311.823 211.701C311.823 211.701 317.954 212.997 322.026 210.331C324.516 208.683 326.765 206.697 328.709 204.43C328.709 204.43 322.899 201.01 317.421 202.205C313.698 203.177 310.213 204.9 307.181 207.27C307.181 207.27 310.766 204.411 311.915 200.615C312.571 198.545 313.032 196.419 313.294 194.264C313.294 194.264 306.648 196.479 304.957 198.473C303.266 200.468 300.416 206.259 300.416 206.259C300.416 206.259 303.266 200.468 299.938 197.067C296.611 193.666 293.807 191.019 293.807 191.019C293.807 191.019 291.004 195.091 290.425 198.372C289.846 201.654 294.055 207.509 294.055 207.509L290.305 205.542L290.158 211.305Z" fill="white"/>
<path d="M135.184 93.0799C135.184 93.0799 129.256 88.3278 127.73 85.2669C126.443 82.6656 125.505 78.9889 126.811 76.2221C127.094 75.5629 127.514 74.9715 128.043 74.4875C128.573 74.0035 129.199 73.638 129.881 73.4153C130.563 73.1927 131.285 73.1179 131.998 73.1962C132.711 73.2744 133.4 73.5038 134.017 73.869C137.694 76.1762 138.061 84.0444 137.133 87.8314C137.078 88.1623 135.249 93.1351 135.184 93.0799Z" fill="#04A4A8"/>
<path d="M190.023 132.724C189.775 132.954 185.547 136.07 185.519 135.997C185.491 135.923 183.157 128.698 183.552 125.297C183.883 122.402 185.096 118.808 187.716 117.245C188.319 116.857 188.999 116.603 189.709 116.498C190.419 116.394 191.143 116.442 191.832 116.639C192.522 116.837 193.162 117.179 193.709 117.643C194.256 118.108 194.698 118.683 195.005 119.332C196.797 123.321 192.854 130.105 190.023 132.724Z" fill="#04A4A8"/>
<path d="M65.7397 100.296C65.7397 100.296 87.4508 123.073 87.3405 151.053C87.2302 179.033 65.2801 201.608 65.2801 201.608C65.2801 201.608 43.569 178.831 43.6885 150.851C43.808 122.871 65.7397 100.296 65.7397 100.296Z" fill="#04A4A8"/>
<path d="M96.6983 167.81C96.4112 167.497 96.1499 167.162 95.9169 166.808C94.3359 164.372 92.9848 160.833 94.0051 157.919C94.2112 157.231 94.5612 156.595 95.0318 156.053C95.5024 155.511 96.0829 155.075 96.7348 154.774C97.3867 154.474 98.0951 154.315 98.8131 154.309C99.531 154.303 100.242 154.449 100.899 154.739C103.85 156.154 105.293 160.962 105.605 164.896C106.782 164.62 107.839 164.409 108.749 164.252C109.144 163.333 109.53 162.469 109.925 161.559C110.321 160.649 110.661 159.721 111.038 158.756C111.552 157.358 112.021 155.888 112.49 154.426C110.771 153.645 105.771 151.264 103.905 149.169C102.039 147.073 100.127 143.709 100.697 140.684C100.797 139.972 101.048 139.29 101.432 138.681C101.815 138.073 102.323 137.553 102.923 137.155C103.522 136.758 104.198 136.491 104.908 136.374C105.617 136.257 106.344 136.291 107.039 136.475C111.157 137.725 113.584 145.216 113.666 149.113C113.666 149.242 113.602 150.033 113.519 151.044C113.933 149.601 114.356 148.167 114.723 146.687C115.79 142.495 116.736 138.193 117.711 133.892C117.913 132.972 118.124 132.099 118.336 131.208C116.884 130.555 111.442 128.027 109.493 125.84C107.545 123.652 105.706 120.38 106.276 117.346C106.378 116.635 106.629 115.954 107.014 115.346C107.398 114.739 107.906 114.22 108.505 113.823C109.104 113.427 109.78 113.161 110.489 113.044C111.198 112.927 111.924 112.962 112.619 113.146C116.746 114.387 119.163 121.878 119.255 125.775C119.255 125.922 119.172 126.906 119.071 128.009C119.632 125.674 120.22 123.358 120.91 121.078C122.008 117.161 123.362 113.32 124.963 109.579C124.448 109.359 118.014 106.518 115.845 104.064C113.924 101.904 112.067 98.6042 112.628 95.5801C112.73 94.8677 112.981 94.1849 113.366 93.5766C113.75 92.9683 114.259 92.4483 114.859 92.0507C115.459 91.6531 116.136 91.3869 116.846 91.2696C117.557 91.1524 118.283 91.1867 118.979 91.3703C123.097 92.6204 125.524 100.112 125.607 104.009C125.607 104.285 125.294 107.851 125.138 109.12L125.193 108.991C126.85 105.363 128.828 101.89 131.103 98.6134C133.109 95.679 135.285 92.8646 137.62 90.1845C139.762 87.6844 141.876 85.5243 143.751 83.6216C144.781 82.6105 145.737 81.6913 146.637 80.864H146.546C146.472 80.864 148.559 75.9924 148.724 75.6982C150.654 72.3156 156.326 66.9476 160.526 67.876C161.225 68.0577 161.879 68.3835 162.445 68.8326C163.01 69.2816 163.476 69.8439 163.812 70.4835C164.148 71.1231 164.346 71.8257 164.395 72.5465C164.443 73.2672 164.34 73.9901 164.093 74.6687C163.174 77.6009 159.956 79.5772 157.254 80.5239C154.552 81.4707 148.402 81.0295 146.895 80.8916C145.976 81.8108 145.001 82.73 143.953 83.8422C142.115 85.7725 140.056 87.9785 137.979 90.5154C137.427 91.1956 136.857 91.9494 136.297 92.6663C137.492 91.6552 139.155 90.2948 139.33 90.1845C142.575 88.0888 150.048 85.9747 153.357 88.769C153.895 89.2523 154.327 89.8422 154.625 90.5013C154.923 91.1604 155.081 91.8742 155.089 92.5976C155.097 93.321 154.954 94.038 154.67 94.7034C154.386 95.3687 153.967 95.9678 153.439 96.4626C151.279 98.6318 147.547 98.8892 144.707 98.4664C141.867 98.0435 136.435 94.661 135.304 93.9164C134.081 95.5158 132.859 97.1979 131.682 99.0271C129.507 102.313 127.627 105.786 126.066 109.405C125.974 109.616 125.91 109.837 125.827 110.048C126.333 109.451 129.348 106.371 129.587 106.16C132.583 103.715 139.78 100.783 143.374 103.191C143.962 103.613 144.455 104.152 144.824 104.775C145.192 105.398 145.426 106.09 145.513 106.808C145.599 107.526 145.535 108.255 145.326 108.947C145.116 109.639 144.764 110.28 144.294 110.829C142.382 113.219 138.696 113.89 135.828 113.789C132.528 113.67 126.02 110.333 125.781 110.204C124.317 113.857 123.089 117.599 122.104 121.409C121.36 124.231 120.726 127.117 120.11 130.022C120.79 129.25 123.594 126.345 123.787 126.189C126.783 123.744 133.98 120.812 137.574 123.22C138.162 123.642 138.655 124.181 139.023 124.804C139.392 125.427 139.626 126.119 139.713 126.837C139.799 127.555 139.735 128.284 139.526 128.976C139.316 129.668 138.964 130.309 138.493 130.858C136.582 133.248 132.896 133.928 130.037 133.818C126.811 133.699 120.56 130.527 120.036 130.261C119.751 131.575 119.476 132.899 119.2 134.223C118.281 138.543 117.463 142.872 116.442 147.091C116.102 148.562 115.716 149.996 115.33 151.448C116.387 150.327 118.336 148.323 118.529 148.176C121.516 145.731 128.723 142.799 132.317 145.198C132.904 145.62 133.398 146.161 133.766 146.784C134.134 147.408 134.369 148.101 134.456 148.82C134.542 149.538 134.478 150.267 134.268 150.96C134.058 151.653 133.707 152.295 133.236 152.845C131.315 155.235 127.638 155.906 124.77 155.805C121.902 155.704 116.58 153.149 115.091 152.404C114.438 154.803 113.74 157.165 112.94 159.463C112.582 160.438 112.269 161.467 111.865 162.386L111.258 163.857C111.791 163.793 112.095 163.774 112.095 163.774C112.095 163.774 112.15 165.135 112.021 167.359C115.183 165.07 119.733 163.103 122.702 164.482C123.346 164.812 123.913 165.273 124.37 165.834C124.826 166.395 125.161 167.045 125.353 167.742C125.544 168.44 125.589 169.17 125.484 169.885C125.379 170.601 125.127 171.287 124.743 171.9C124.549 172.225 124.327 172.532 124.081 172.819C123.524 176.194 122.119 179.372 120 182.057C119.834 182.25 117.692 184.263 116.571 185.265C117.656 184.667 118.731 184.079 119.843 183.426C121.461 182.507 123.134 181.505 124.761 180.531L127.27 178.904C128.125 178.371 128.888 177.755 129.715 177.176C130.91 176.303 132.096 175.338 133.282 174.418C132.271 172.81 129.394 167.984 128.971 165.227C128.548 162.469 128.778 158.544 130.901 156.338C131.378 155.802 131.963 155.375 132.618 155.084C133.274 154.792 133.984 154.645 134.701 154.65C135.418 154.655 136.125 154.813 136.776 155.114C137.427 155.415 138.006 155.851 138.475 156.393C141.233 159.739 139.192 167.341 137.142 170.65C137.078 170.751 136.572 171.404 135.966 172.176C137.096 171.201 138.227 170.236 139.339 169.216C142.501 166.311 145.626 163.26 148.779 160.217L150.755 158.324C149.901 156.972 146.729 151.816 146.297 148.893C145.865 145.97 146.104 142.21 148.218 140.004C148.695 139.469 149.281 139.041 149.936 138.75C150.591 138.459 151.301 138.311 152.018 138.316C152.735 138.321 153.443 138.479 154.094 138.78C154.744 139.081 155.324 139.517 155.793 140.059C158.55 143.405 156.509 151.007 154.469 154.316C154.395 154.435 153.789 155.235 153.108 156.072C154.846 154.445 156.592 152.836 158.375 151.301C161.414 148.636 164.63 146.179 167.999 143.948C167.687 143.47 163.854 137.513 163.403 134.25C162.971 131.373 163.21 127.577 165.324 125.371C165.8 124.835 166.385 124.406 167.04 124.114C167.695 123.822 168.405 123.674 169.122 123.678C169.839 123.682 170.547 123.84 171.198 124.14C171.849 124.439 172.429 124.875 172.898 125.417C175.656 128.772 173.615 136.373 171.575 139.673C171.428 139.912 169.222 142.707 168.404 143.681L168.523 143.598C171.877 141.504 175.412 139.714 179.085 138.249C182.34 136.961 185.667 135.862 189.049 134.958C192.201 134.039 195.124 133.45 197.726 132.927C199.132 132.651 200.428 132.421 201.641 132.228L201.568 132.173C201.503 132.118 205.888 129.231 206.164 129.084C209.611 127.347 217.258 126.042 220.255 129.176C220.741 129.712 221.111 130.342 221.34 131.028C221.569 131.714 221.653 132.44 221.587 133.161C221.52 133.881 221.305 134.579 220.953 135.211C220.602 135.844 220.123 136.396 219.547 136.833C217.166 138.754 213.434 138.616 210.659 137.89C207.883 137.164 203.002 133.349 201.816 132.375C200.566 132.605 199.233 132.862 197.762 133.184C195.179 133.763 192.247 134.443 189.159 135.399C188.332 135.657 187.449 135.96 186.585 136.245C188.139 136.079 190.262 135.877 190.473 135.877C194.306 135.951 201.687 138.377 202.937 142.56C203.121 143.253 203.159 143.977 203.049 144.687C202.939 145.396 202.682 146.074 202.296 146.679C201.91 147.284 201.402 147.802 200.805 148.2C200.208 148.599 199.535 148.869 198.829 148.994C195.851 149.582 192.597 147.707 190.455 145.758C188.313 143.81 185.638 137.964 185.087 136.695C183.193 137.348 181.263 138.065 179.287 138.929C175.689 140.451 172.237 142.297 168.974 144.444C168.781 144.573 168.606 144.72 168.413 144.848C169.167 144.637 173.367 143.736 173.671 143.709C177.494 143.35 185.087 144.94 186.778 148.966C187.043 149.638 187.165 150.358 187.136 151.079C187.107 151.801 186.928 152.508 186.609 153.157C186.291 153.805 185.84 154.379 185.287 154.843C184.734 155.307 184.089 155.65 183.396 155.851C180.5 156.77 177.062 155.272 174.728 153.571C172.044 151.623 168.422 145.188 168.293 144.94C165.092 147.175 162.037 149.613 159.148 152.239C156.997 154.169 154.901 156.219 152.814 158.296C153.798 158.039 157.704 157.211 157.989 157.184C161.813 156.825 169.415 158.415 171.097 162.432C171.362 163.104 171.484 163.824 171.455 164.545C171.426 165.267 171.246 165.974 170.928 166.623C170.61 167.271 170.159 167.845 169.606 168.309C169.052 168.773 168.408 169.116 167.714 169.317C164.819 170.236 161.381 168.738 159.056 167.047C156.427 165.135 152.934 158.985 152.621 158.471L149.781 161.302C146.711 164.418 143.632 167.552 140.507 170.549C139.431 171.587 138.328 172.571 137.225 173.554C138.705 173.214 141.426 172.635 141.665 172.635C145.488 172.277 153.081 173.867 154.772 177.893C155.037 178.565 155.16 179.284 155.13 180.006C155.101 180.728 154.922 181.435 154.603 182.083C154.285 182.731 153.835 183.306 153.281 183.77C152.728 184.234 152.083 184.577 151.39 184.778C148.494 185.697 145.056 184.199 142.722 182.498C140.387 180.798 137.335 175.696 136.49 174.225C134.651 175.862 132.813 177.433 130.873 178.904C130.037 179.511 129.219 180.191 128.382 180.742L125.919 182.425C124.191 183.509 122.592 184.52 120.955 185.495C120.137 185.991 119.347 186.414 118.547 186.91C120 186.331 122.316 185.458 122.536 185.403C126.268 184.483 134.008 184.86 136.278 188.574C136.645 189.201 136.876 189.897 136.958 190.619C137.039 191.341 136.968 192.071 136.75 192.764C136.532 193.457 136.171 194.096 135.691 194.641C135.211 195.186 134.622 195.624 133.962 195.927C131.204 197.279 127.62 196.323 125.055 195.008C122.233 193.556 117.996 188.215 117.472 187.563C115.505 188.703 113.574 189.796 111.745 190.789C106.874 193.436 102.618 195.55 99.3179 197.131C88.5911 206.553 73.4981 207.592 73.4981 207.592C73.4981 207.592 72.7076 189.208 83.3517 177.13C87.0581 173.076 91.616 169.893 96.6983 167.81ZM115.845 185.724C115.514 184.971 112.94 179.134 112.766 175.843C112.168 175.733 111.571 175.604 110.992 175.466C109.904 181.259 107.635 186.766 104.327 191.644C106.276 190.725 108.39 189.658 110.633 188.5C112.297 187.645 114.052 186.708 115.845 185.724Z" fill="#04A4A8"/>
<path d="M17.6109 164.298C17.6109 164.298 35.6913 164.859 46.7674 176.551C57.8436 188.243 57.6965 206.627 57.6965 206.627C57.6965 206.627 39.6162 206.066 28.54 194.374C17.4639 182.682 17.6109 164.298 17.6109 164.298Z" fill="#04A4A8"/>
<g opacity="0.5">
<path d="M135.183 93.08C135.183 93.08 129.255 88.3279 127.729 85.267C126.442 82.6657 125.504 78.989 126.81 76.2222C127.093 75.563 127.513 74.9716 128.042 74.4876C128.572 74.0036 129.199 73.6381 129.88 73.4154C130.562 73.1928 131.284 73.118 131.997 73.1963C132.71 73.2745 133.399 73.5039 134.016 73.8691C137.693 76.1763 138.06 84.0445 137.132 87.8315C137.077 88.1624 135.248 93.1352 135.183 93.08Z" fill="white"/>
<path d="M190.022 132.724C189.774 132.954 185.546 136.07 185.518 135.997C185.49 135.923 183.156 128.698 183.551 125.297C183.882 122.402 185.095 118.808 187.715 117.245C188.318 116.857 188.998 116.603 189.708 116.498C190.418 116.394 191.142 116.442 191.831 116.639C192.521 116.837 193.161 117.179 193.708 117.643C194.255 118.108 194.697 118.683 195.004 119.332C196.796 123.321 192.853 130.105 190.022 132.724Z" fill="white"/>
<path d="M65.7392 100.296C65.7392 100.296 87.4503 123.073 87.34 151.053C87.2297 179.033 65.2796 201.608 65.2796 201.608C65.2796 201.608 43.5685 178.831 43.688 150.851C43.8075 122.871 65.7392 100.296 65.7392 100.296Z" fill="white"/>
<path d="M96.6973 167.81C96.4102 167.497 96.1489 167.162 95.916 166.808C94.335 164.372 92.9838 160.833 94.0041 157.919C94.2102 157.231 94.5602 156.595 95.0308 156.053C95.5015 155.511 96.082 155.075 96.7339 154.774C97.3858 154.474 98.0942 154.315 98.8121 154.309C99.53 154.303 100.241 154.449 100.898 154.739C103.849 156.154 105.292 160.962 105.604 164.896C106.781 164.62 107.838 164.409 108.748 164.252C109.143 163.333 109.529 162.469 109.924 161.559C110.32 160.649 110.66 159.721 111.037 158.756C111.551 157.358 112.02 155.888 112.489 154.426C110.77 153.645 105.77 151.264 103.904 149.169C102.038 147.073 100.126 143.709 100.696 140.684C100.797 139.972 101.047 139.29 101.431 138.681C101.814 138.073 102.322 137.553 102.922 137.155C103.521 136.758 104.197 136.491 104.907 136.374C105.616 136.257 106.343 136.291 107.038 136.475C111.156 137.725 113.583 145.216 113.665 149.113C113.665 149.242 113.601 150.033 113.518 151.044C113.932 149.601 114.355 148.167 114.722 146.687C115.789 142.495 116.735 138.193 117.71 133.892C117.912 132.972 118.123 132.099 118.335 131.208C116.883 130.555 111.441 128.027 109.492 125.84C107.544 123.652 105.705 120.38 106.275 117.346C106.377 116.635 106.628 115.954 107.013 115.346C107.397 114.739 107.905 114.22 108.504 113.823C109.103 113.427 109.779 113.161 110.488 113.044C111.197 112.927 111.923 112.962 112.618 113.146C116.745 114.387 119.162 121.878 119.254 125.775C119.254 125.922 119.171 126.906 119.07 128.009C119.631 125.674 120.219 123.358 120.909 121.078C122.007 117.161 123.361 113.32 124.962 109.579C124.447 109.359 118.013 106.518 115.844 104.064C113.923 101.904 112.066 98.6042 112.627 95.5801C112.729 94.8677 112.98 94.1849 113.365 93.5766C113.749 92.9683 114.258 92.4483 114.858 92.0507C115.458 91.6531 116.135 91.3869 116.845 91.2696C117.556 91.1524 118.282 91.1867 118.978 91.3703C123.096 92.6204 125.523 100.112 125.606 104.009C125.606 104.285 125.293 107.851 125.137 109.12L125.192 108.991C126.849 105.363 128.827 101.89 131.102 98.6134C133.108 95.679 135.284 92.8646 137.619 90.1845C139.761 87.6844 141.875 85.5243 143.75 83.6216C144.78 82.6105 145.736 81.6913 146.636 80.864H146.545C146.471 80.864 148.558 75.9924 148.723 75.6982C150.653 72.3156 156.325 66.9476 160.525 67.876C161.224 68.0577 161.878 68.3835 162.444 68.8326C163.009 69.2816 163.475 69.8439 163.811 70.4835C164.147 71.1231 164.345 71.8257 164.394 72.5465C164.442 73.2672 164.339 73.9901 164.092 74.6687C163.173 77.6009 159.955 79.5772 157.253 80.5239C154.551 81.4707 148.401 81.0295 146.894 80.8916C145.975 81.8108 145 82.73 143.952 83.8422C142.114 85.7725 140.055 87.9785 137.978 90.5154C137.426 91.1956 136.856 91.9494 136.296 92.6663C137.491 91.6552 139.154 90.2948 139.329 90.1845C142.574 88.0888 150.047 85.9747 153.356 88.769C153.894 89.2523 154.326 89.8422 154.624 90.5013C154.922 91.1604 155.08 91.8742 155.088 92.5976C155.096 93.321 154.953 94.038 154.669 94.7034C154.385 95.3687 153.966 95.9678 153.438 96.4626C151.278 98.6318 147.546 98.8892 144.706 98.4664C141.866 98.0435 136.434 94.661 135.303 93.9164C134.08 95.5158 132.858 97.1979 131.681 99.0271C129.506 102.313 127.626 105.786 126.065 109.405C125.973 109.616 125.909 109.837 125.826 110.048C126.332 109.451 129.347 106.371 129.586 106.16C132.582 103.715 139.779 100.783 143.373 103.191C143.961 103.613 144.454 104.152 144.823 104.775C145.191 105.398 145.425 106.09 145.512 106.808C145.598 107.526 145.534 108.255 145.325 108.947C145.115 109.639 144.763 110.28 144.293 110.829C142.381 113.219 138.695 113.89 135.827 113.789C132.527 113.67 126.019 110.333 125.78 110.204C124.316 113.857 123.088 117.599 122.103 121.409C121.359 124.231 120.725 127.117 120.109 130.022C120.789 129.25 123.593 126.345 123.786 126.189C126.782 123.744 133.979 120.812 137.573 123.22C138.161 123.642 138.654 124.181 139.023 124.804C139.391 125.427 139.625 126.119 139.712 126.837C139.798 127.555 139.734 128.284 139.525 128.976C139.315 129.668 138.963 130.309 138.493 130.858C136.581 133.248 132.895 133.928 130.036 133.818C126.81 133.699 120.559 130.527 120.035 130.261C119.75 131.575 119.475 132.899 119.199 134.223C118.28 138.543 117.462 142.872 116.441 147.091C116.101 148.562 115.715 149.996 115.329 151.448C116.386 150.327 118.335 148.323 118.528 148.176C121.515 145.731 128.722 142.799 132.316 145.198C132.903 145.62 133.397 146.161 133.765 146.784C134.133 147.408 134.368 148.101 134.455 148.82C134.541 149.538 134.477 150.267 134.267 150.96C134.057 151.653 133.706 152.295 133.235 152.845C131.314 155.235 127.637 155.906 124.769 155.805C121.901 155.704 116.579 153.149 115.09 152.404C114.438 154.803 113.739 157.165 112.939 159.463C112.581 160.438 112.268 161.467 111.864 162.386L111.257 163.857C111.79 163.793 112.094 163.774 112.094 163.774C112.094 163.774 112.149 165.135 112.02 167.359C115.182 165.07 119.732 163.103 122.701 164.482C123.345 164.812 123.912 165.273 124.369 165.834C124.825 166.395 125.16 167.045 125.352 167.742C125.543 168.44 125.588 169.17 125.483 169.885C125.378 170.601 125.126 171.287 124.742 171.9C124.548 172.225 124.326 172.532 124.08 172.819C123.523 176.194 122.118 179.372 119.999 182.057C119.833 182.25 117.691 184.263 116.57 185.265C117.655 184.667 118.73 184.079 119.842 183.426C121.46 182.507 123.133 181.505 124.76 180.531L127.269 178.904C128.124 178.371 128.887 177.755 129.714 177.176C130.909 176.303 132.095 175.338 133.281 174.418C132.27 172.81 129.393 167.984 128.97 165.227C128.547 162.469 128.777 158.544 130.9 156.338C131.377 155.802 131.962 155.375 132.618 155.084C133.273 154.792 133.983 154.645 134.7 154.65C135.417 154.655 136.124 154.813 136.775 155.114C137.426 155.415 138.005 155.851 138.474 156.393C141.232 159.739 139.191 167.341 137.141 170.65C137.077 170.751 136.571 171.404 135.965 172.176C137.095 171.201 138.226 170.236 139.338 169.216C142.5 166.311 145.625 163.26 148.778 160.217L150.754 158.324C149.9 156.972 146.728 151.816 146.296 148.893C145.864 145.97 146.103 142.21 148.217 140.004C148.694 139.469 149.28 139.041 149.935 138.75C150.59 138.459 151.3 138.311 152.017 138.316C152.734 138.321 153.442 138.479 154.093 138.78C154.743 139.081 155.323 139.517 155.792 140.059C158.549 143.405 156.508 151.007 154.468 154.316C154.394 154.435 153.788 155.235 153.108 156.072C154.845 154.445 156.591 152.836 158.374 151.301C161.413 148.636 164.629 146.179 167.998 143.948C167.686 143.47 163.853 137.513 163.402 134.25C162.97 131.373 163.209 127.577 165.323 125.371C165.799 124.835 166.384 124.406 167.039 124.114C167.694 123.822 168.404 123.674 169.121 123.678C169.838 123.682 170.546 123.84 171.197 124.14C171.848 124.439 172.428 124.875 172.898 125.417C175.655 128.772 173.614 136.373 171.574 139.673C171.427 139.912 169.221 142.707 168.403 143.681L168.522 143.598C171.876 141.504 175.411 139.714 179.084 138.249C182.339 136.961 185.666 135.862 189.048 134.958C192.2 134.039 195.123 133.45 197.725 132.927C199.131 132.651 200.427 132.421 201.64 132.228L201.567 132.173C201.502 132.118 205.887 129.231 206.163 129.084C209.61 127.347 217.257 126.042 220.254 129.176C220.74 129.712 221.11 130.342 221.339 131.028C221.568 131.714 221.652 132.44 221.586 133.161C221.519 133.881 221.304 134.579 220.952 135.211C220.601 135.844 220.122 136.396 219.546 136.833C217.165 138.754 213.433 138.616 210.658 137.89C207.882 137.164 203.001 133.349 201.815 132.375C200.565 132.605 199.232 132.862 197.761 133.184C195.179 133.763 192.246 134.443 189.158 135.399C188.331 135.657 187.448 135.96 186.584 136.245C188.138 136.079 190.261 135.877 190.472 135.877C194.305 135.951 201.686 138.377 202.936 142.56C203.12 143.253 203.158 143.977 203.048 144.687C202.938 145.396 202.681 146.074 202.295 146.679C201.909 147.284 201.401 147.802 200.804 148.2C200.207 148.599 199.534 148.869 198.828 148.994C195.85 149.582 192.596 147.707 190.454 145.758C188.312 143.81 185.637 137.964 185.086 136.695C183.192 137.348 181.262 138.065 179.286 138.929C175.688 140.451 172.236 142.297 168.973 144.444C168.78 144.573 168.605 144.72 168.412 144.848C169.166 144.637 173.366 143.736 173.67 143.709C177.493 143.35 185.086 144.94 186.777 148.966C187.042 149.638 187.164 150.358 187.135 151.079C187.106 151.801 186.927 152.508 186.608 153.157C186.29 153.805 185.839 154.379 185.286 154.843C184.733 155.307 184.088 155.65 183.395 155.851C180.499 156.77 177.061 155.272 174.727 153.571C172.043 151.623 168.421 145.188 168.292 144.94C165.091 147.175 162.036 149.613 159.147 152.239C156.996 154.169 154.9 156.219 152.813 158.296C153.797 158.039 157.703 157.211 157.988 157.184C161.812 156.825 169.414 158.415 171.096 162.432C171.361 163.104 171.483 163.824 171.454 164.545C171.425 165.267 171.246 165.974 170.927 166.623C170.609 167.271 170.158 167.845 169.605 168.309C169.051 168.773 168.407 169.116 167.713 169.317C164.818 170.236 161.38 168.738 159.055 167.047C156.426 165.135 152.933 158.985 152.62 158.471L149.78 161.302C146.71 164.418 143.631 167.552 140.506 170.549C139.43 171.587 138.327 172.571 137.224 173.554C138.704 173.214 141.425 172.635 141.664 172.635C145.487 172.277 153.08 173.867 154.771 177.893C155.037 178.565 155.159 179.284 155.129 180.006C155.1 180.728 154.921 181.435 154.602 182.083C154.284 182.731 153.834 183.306 153.28 183.77C152.727 184.234 152.082 184.577 151.389 184.778C148.493 185.697 145.055 184.199 142.721 182.498C140.386 180.798 137.334 175.696 136.489 174.225C134.65 175.862 132.812 177.433 130.873 178.904C130.036 179.511 129.218 180.191 128.382 180.742L125.918 182.425C124.19 183.509 122.591 184.52 120.955 185.495C120.136 185.991 119.346 186.414 118.546 186.91C119.999 186.331 122.315 185.458 122.536 185.403C126.267 184.483 134.007 184.86 136.277 188.574C136.644 189.201 136.875 189.897 136.957 190.619C137.038 191.341 136.967 192.071 136.749 192.764C136.531 193.457 136.17 194.096 135.69 194.641C135.21 195.186 134.621 195.624 133.961 195.927C131.203 197.279 127.619 196.323 125.054 195.008C122.232 193.556 117.995 188.215 117.471 187.563C115.504 188.703 113.573 189.796 111.744 190.789C106.873 193.436 102.617 195.55 99.317 197.131C88.5901 206.553 73.4971 207.592 73.4971 207.592C73.4971 207.592 72.7066 189.208 83.3507 177.13C87.0571 173.076 91.615 169.893 96.6973 167.81ZM115.844 185.724C115.513 184.971 112.939 179.134 112.765 175.843C112.167 175.733 111.57 175.604 110.991 175.466C109.903 181.259 107.634 186.766 104.326 191.644C106.275 190.725 108.389 189.658 110.632 188.5C112.296 187.645 114.051 186.708 115.844 185.724Z" fill="white"/>
<path d="M17.6109 164.298C17.6109 164.298 35.6913 164.859 46.7674 176.551C57.8436 188.243 57.6965 206.627 57.6965 206.627C57.6965 206.627 39.6162 206.066 28.54 194.374C17.4639 182.682 17.6109 164.298 17.6109 164.298Z" fill="white"/>
</g>
<g opacity="0.2">
<path d="M64.8479 176.137L47.0801 159.905L47.843 159.041L64.8571 174.593L64.949 153.314L64.8571 153.378L49.8284 131.051L50.766 130.399L64.9582 151.476L65.1696 100.296H66.3094L66.1623 135.041L77.4683 125.095L78.222 125.968L66.1531 136.576L66.052 161.421L83.1948 146.007L83.9485 146.871L66.0428 162.965L65.9509 185.587L78.8286 175.31L79.5364 176.22L65.9417 187.066L65.8774 201.626L64.7376 201.617L64.8479 176.137Z" fill="#039EA2"/>
<path d="M81.2096 182.406L82.3402 182.268L83.7741 195.128L91.4033 186.46H91.3941L93.3244 170.898L94.455 171.045L92.7269 184.961L111.68 163.425L112.535 164.197L99.6668 178.812L107.811 178.913L107.802 180.071L98.6649 179.952L89.6385 190.201L102.378 190.219V191.377L88.6274 191.359L80.4191 200.68L89.4087 201.231L89.3352 202.38L79.4539 201.783L73.994 207.987L73.1392 207.215L82.763 196.286L81.2096 182.406Z" fill="#039EA2"/>
<path d="M38.2838 186.984L23.1632 183.868L23.393 182.728L36.9234 185.522L17.1978 164.703L18.0158 163.894L31.3991 178.022L32.1069 169.777L33.2375 169.878L32.447 179.134L41.8318 189.033L42.797 176.128L43.9368 176.22L42.8889 190.155L51.4189 199.163L52.6322 190.1L53.7537 190.256L52.43 200.229L58.1106 206.222L57.2925 207.031L47.2826 196.46L33.55 197.003L33.5041 195.845L46.2255 195.348L38.293 186.965L38.2838 186.984Z" fill="#039EA2"/>
</g>
<path d="M112.637 210.267L0 228.237L207.515 264.186L377.481 234.772L112.637 210.267Z" fill="#067A7D"/>
<path opacity="0.15" d="M184.305 238.256C215.973 238.256 241.644 235.198 241.644 231.426C241.644 227.654 215.973 224.597 184.305 224.597C152.638 224.597 126.967 227.654 126.967 231.426C126.967 235.198 152.638 238.256 184.305 238.256Z" fill="#039EA2"/>
<path d="M183.688 178.513C183.688 178.513 178.908 179.882 164.238 179.542C149.567 179.202 128.389 172.372 120.209 172.372C112.028 172.372 103.13 175.443 99.7294 182.272C96.3284 189.102 93.2399 197.632 113.039 205.481C132.838 213.331 147.849 215.721 176.178 222.882C204.507 230.042 215.767 230.391 230.41 226.641C245.052 222.891 254.979 213.331 253.619 199.985C252.259 186.638 249.179 178.485 242.019 176.435C234.858 174.385 183.688 178.513 183.688 178.513Z" fill="#263238" stroke="#263238" stroke-width="0.919183" stroke-linecap="round" stroke-linejoin="round"/>
<path d="M206.584 69.8008C206.584 69.8008 207.099 76.2903 205.288 79.9119C203.477 83.5334 196.197 87.1826 189.965 90.556C183.733 93.9294 174.909 93.4146 171.278 99.1228C167.648 104.831 167.905 114.436 167.905 114.436C167.905 114.436 162.188 123.27 157.518 131.055C152.849 138.841 150.248 146.893 156.222 151.277C162.197 155.662 169.458 149.2 173.356 143.005C177.253 136.809 180.884 129.768 180.884 129.768C180.884 129.768 185.857 153.878 184.515 160.396C183.173 166.913 180.103 173.117 180.103 176.022C180.103 178.926 182.437 180.958 186.077 181.73C189.717 182.502 202.172 183.568 210.739 183.035C219.306 182.502 243.71 180.958 244.749 177.575C245.787 174.192 247.341 150.836 247.341 150.836C247.341 150.836 262.654 156.029 267.333 146.69C272.012 137.352 272.26 116.357 268.886 105.925C265.513 95.492 256.937 91.6498 251.753 89.0577C246.569 86.4656 232.285 79.7096 229.692 76.851C227.1 73.9923 226.301 59.9288 226.301 55.2594C226.301 50.5899 225.786 55.002 220.85 58.6328C215.914 62.2635 206.584 69.8008 206.584 69.8008Z" fill="white"/>
<path d="M268.886 105.879C265.513 95.5012 256.937 91.6039 251.753 89.0118C246.568 86.4197 232.284 79.6637 229.692 76.805C227.1 73.9464 226.3 59.9288 226.3 55.2594C226.3 50.5899 225.786 55.002 220.85 58.6328C215.914 62.2635 206.575 69.8008 206.575 69.8008C206.671 71.273 206.671 72.7499 206.575 74.2221C209.525 75.4998 213.432 76.9797 215.61 76.9797C219.406 76.9797 220.546 79.6361 222.045 82.2925C223.543 84.949 220.905 87.9823 220.905 87.9823C220.905 87.9823 233.047 88.7452 237.22 89.8758C241.393 91.0064 252.396 92.5322 259.225 98.2312C264.621 102.717 268.353 110.98 270.807 116.321C270.542 112.781 269.898 109.281 268.886 105.879Z" fill="white"/>
<path opacity="0.6" d="M268.886 105.879C265.513 95.5012 256.937 91.6039 251.753 89.0118C246.568 86.4197 232.284 79.6637 229.692 76.805C227.1 73.9464 226.3 59.9288 226.3 55.2594C226.3 50.5899 225.786 55.002 220.85 58.6328C215.914 62.2635 206.575 69.8008 206.575 69.8008C206.671 71.273 206.671 72.7499 206.575 74.2221C209.525 75.4998 213.432 76.9797 215.61 76.9797C219.406 76.9797 220.546 79.6361 222.045 82.2925C223.543 84.949 220.905 87.9823 220.905 87.9823C220.905 87.9823 233.047 88.7452 237.22 89.8758C241.393 91.0064 252.396 92.5322 259.225 98.2312C264.621 102.717 268.353 110.98 270.807 116.321C270.542 112.781 269.898 109.281 268.886 105.879Z" fill="white"/>
<path d="M206.584 69.8008C206.584 69.8008 207.099 76.2903 205.288 79.9119C203.477 83.5334 196.197 87.1826 189.965 90.556C183.733 93.9294 174.909 93.4146 171.278 99.1228C167.648 104.831 167.905 114.436 167.905 114.436C167.905 114.436 162.188 123.27 157.518 131.055C152.849 138.841 150.248 146.893 156.222 151.277C162.197 155.662 169.458 149.2 173.356 143.005C177.253 136.809 180.884 129.768 180.884 129.768C180.884 129.768 185.857 153.878 184.515 160.395C183.173 166.913 180.103 173.117 180.103 176.022C180.103 178.926 182.437 180.958 186.077 181.73C189.717 182.502 202.172 183.568 210.739 183.035C219.306 182.502 243.71 180.958 244.749 177.575C245.787 174.192 247.341 150.836 247.341 150.836C247.341 150.836 262.654 156.029 267.333 146.69C272.012 137.352 272.26 116.357 268.886 105.925C265.513 95.492 256.937 91.6498 251.753 89.0577C246.569 86.4656 232.285 79.7096 229.692 76.851C227.1 73.9923 226.301 59.9288 226.301 55.2594C226.301 50.5899 225.786 55.002 220.85 58.6328C215.914 62.2636 206.584 69.8008 206.584 69.8008Z" stroke="#263238" stroke-width="0.919183" stroke-linecap="round" stroke-linejoin="round"/>
<path d="M242.929 39.4218C245.006 35.5337 248.122 28.7777 243.967 24.1083C239.812 19.4388 237.22 22.2699 236.696 17.6188C236.173 12.9678 235.143 8.01336 230.464 8.01336C225.786 8.01336 222.422 9.85173 219.563 8.01336C216.704 6.175 214.369 1 207.099 1C199.828 1 199.837 12.1681 198.532 13.4641C197.89 13.9271 197.171 14.2725 196.409 14.4844C196.138 14.4169 195.886 14.2905 195.67 14.1141C195.453 13.9377 195.279 13.7158 195.159 13.4641C193.863 10.872 197.493 11.1294 199.056 7.23206C200.619 3.33472 196.197 0.742631 193.081 3.07736C189.965 5.41208 196.455 5.15471 192.824 9.05204C189.193 12.9494 187.116 17.6188 190.452 23.3545C193.789 29.0902 197.723 25.6892 197.723 25.6892C198.495 25.1745 199.194 28.0975 206.115 29.366C212.706 30.5701 217.21 28.4468 217.734 35.69C218.258 42.9331 224.72 46.9867 226.539 48.0254C228.359 49.0641 223.681 54.7814 224.701 57.3735C225.721 59.9656 229.113 59.7082 231.191 59.4508C233.268 59.1935 231.972 56.0774 236.384 55.5535C240.796 55.0296 242.349 53.7151 244.169 48.8067C245.989 43.8983 240.851 43.3192 242.929 39.4218Z" fill="#263238" stroke="#263238" stroke-width="0.919183" stroke-linecap="round" stroke-linejoin="round"/>
<path d="M242.037 32.4269C242.829 32.5199 243.628 32.317 244.28 31.857" stroke="white" stroke-width="0.919183" stroke-linecap="round" stroke-linejoin="round"/>
<path d="M226.089 21.8562C226.089 21.8562 230.685 18.1795 233.369 22.7754C235.014 25.533 237.156 29.2097 239.491 31.1767" stroke="white" stroke-width="0.919183" stroke-linecap="round" stroke-linejoin="round"/>
<path d="M223.818 34.587C226.666 34.0545 229.571 33.8999 232.459 34.1274C236.549 34.587 236.135 37.8041 240.639 37.8041" stroke="white" stroke-width="0.919183" stroke-linecap="round" stroke-linejoin="round"/>
<path d="M204.837 17.3523C205.22 17.8197 205.651 18.2449 206.124 18.6208" stroke="white" stroke-width="0.919183" stroke-linecap="round" stroke-linejoin="round"/>
<path d="M223.634 17.3982C223.634 17.3982 222.458 21.3967 217.908 15.9459C213.358 10.4952 210.205 4.18036 205.039 9.59435C204.421 10.1494 203.943 10.8422 203.642 11.6168C203.342 12.3914 203.229 13.2258 203.311 14.0524" stroke="white" stroke-width="0.919183" stroke-linecap="round" stroke-linejoin="round"/>
<path d="M193.357 18.8781C192.908 17.9511 192.599 16.9631 192.438 15.9459" stroke="white" stroke-width="0.919183" stroke-linecap="round" stroke-linejoin="round"/>
<path d="M201.537 23.2167C201.537 23.2167 197.171 23.7314 194.423 20.5051" stroke="white" stroke-width="0.919183" stroke-linecap="round" stroke-linejoin="round"/>
<path d="M251.753 89.0118C247.709 86.9804 238.131 82.4304 232.882 79.1765C231.154 84.3607 226.08 96.2733 215.932 96.2733C206.575 96.2733 203.827 87.5227 203.064 82.6234C199.957 85.381 194.69 88.0282 190.002 90.5652C183.779 93.9386 174.946 93.4239 171.315 99.132C167.685 104.84 167.942 114.446 167.942 114.446C167.942 114.446 166.012 117.433 163.484 121.45C173.972 120.926 180.948 129.768 180.948 129.768C180.948 129.768 185.857 153.879 184.515 160.396C183.173 166.913 180.103 173.117 180.103 176.022C180.103 178.926 182.437 180.958 186.077 181.73C189.717 182.502 202.172 183.568 210.739 183.035C219.306 182.502 243.71 180.958 244.749 177.575C245.788 174.192 247.341 150.836 247.341 150.836L245.788 130.329C258.831 121.707 267.949 127.746 270.936 130.329C271.58 121.514 270.844 111.945 268.887 105.916C265.513 95.5012 256.946 91.6039 251.753 89.0118Z" fill="#FF7262"/>
<path opacity="0.15" d="M268.886 105.879C265.513 95.5012 256.937 91.6039 251.753 89.0118C246.568 86.4197 232.284 79.6637 229.692 76.805C227.1 73.9464 226.3 59.9288 226.3 55.2594C226.3 50.5899 225.786 55.002 220.85 58.6328C215.914 62.2635 206.575 69.8008 206.575 69.8008C206.671 71.273 206.671 72.7499 206.575 74.2221C209.525 75.4998 213.432 76.9797 215.61 76.9797C219.406 76.9797 220.546 79.6361 222.045 82.2925C223.543 84.949 220.905 87.9823 220.905 87.9823C220.905 87.9823 233.047 88.7452 237.22 89.8758C241.393 91.0064 252.396 92.5322 259.225 98.2312C264.621 102.717 268.353 110.98 270.807 116.321C270.542 112.781 269.898 109.281 268.886 105.879Z" fill="#039EA2"/>
<path opacity="0.15" d="M233.442 89.5357C233.442 89.5357 229.646 96.7421 222.412 99.0217C218.261 100.389 213.826 100.652 209.543 99.7846C209.543 99.7846 214.856 102.818 222.826 100.924C230.795 99.0309 233.442 89.5357 233.442 89.5357Z" fill="#039EA2"/>
<path opacity="0.15" d="M244.068 125.191C244.068 125.191 244.445 137.333 239.895 140.366C235.345 143.4 220.923 146.056 215.234 144.54C209.544 143.023 204.203 135.054 198.918 136.57C193.633 138.087 184.496 147.959 184.496 147.959L184.873 154.788L201.188 146.819C201.188 146.819 212.219 153.253 224.333 161.232C236.448 169.21 225.096 171.104 225.096 171.104L209.921 176.794C209.921 176.794 219.784 172.997 227.385 172.997C234.987 172.997 230.042 174.514 230.042 174.514H244.454L244.758 177.529L247.515 158.962L246.752 136.57C246.752 136.57 245.971 121.395 244.068 125.191Z" fill="#039EA2"/>
<path d="M251.753 89.0118C247.709 86.9804 238.131 82.4304 232.882 79.1765C231.154 84.3607 226.08 96.2733 215.932 96.2733C206.575 96.2733 203.827 87.5227 203.064 82.6234C199.957 85.381 194.69 88.0282 190.002 90.5652C183.779 93.9386 174.946 93.4239 171.315 99.132C167.685 104.84 167.942 114.446 167.942 114.446C167.942 114.446 166.012 117.433 163.484 121.45C173.972 120.926 180.948 129.768 180.948 129.768C180.948 129.768 185.857 153.878 184.515 160.396C183.173 166.913 180.103 173.117 180.103 176.022C180.103 178.926 182.437 180.958 186.077 181.73C189.717 182.502 202.172 183.568 210.739 183.035C219.306 182.502 243.71 180.958 244.749 177.575C245.788 174.192 247.341 150.836 247.341 150.836L245.788 130.329C258.831 121.707 267.949 127.746 270.936 130.329C271.58 121.514 270.844 111.945 268.887 105.916C265.513 95.5012 256.946 91.6039 251.753 89.0118Z" stroke="#FF7262" stroke-width="0.919183" stroke-linecap="round" stroke-linejoin="round"/>
<path d="M180.883 129.768C180.883 129.768 176.867 117.424 178.567 110.934" stroke="#263238" stroke-width="0.919183" stroke-linecap="round" stroke-linejoin="round"/>
<path d="M245.787 130.283C244.832 125.442 245.071 120.441 246.486 115.714" stroke="#263238" stroke-width="0.919183" stroke-linecap="round" stroke-linejoin="round"/>
<path d="M186.077 181.684C186.077 181.684 198.707 179.845 207.218 177.832" stroke="#263238" stroke-width="0.919183" stroke-linecap="round" stroke-linejoin="round"/>
<path d="M155.872 136.414C155.872 136.414 153.308 137.774 151.276 142.729C149.245 147.683 146.681 156.884 149.227 159.789C151.773 162.693 157.591 160.129 163.014 159.449C168.438 158.768 191.169 145.459 194.919 143.234C198.67 141.01 201.749 140.164 202.944 138.114C204.139 136.065 203.799 128.73 203.964 125.145C204.129 121.56 203.284 105.52 203.284 105.52C203.284 105.52 202.089 101.595 200.039 101.935C200.039 101.935 197.649 100.575 197.144 101.935L196.114 104.693C196.114 104.693 193.899 104.013 193.357 105.208C192.986 106.371 192.758 107.575 192.676 108.793C192.676 108.793 190.121 109.987 190.121 111.55C190.121 113.113 190.627 122.305 190.627 124.86C190.627 127.415 190.287 131.349 191.141 133.05C191.996 134.75 192.851 136.294 192.851 136.294C192.851 136.294 180.387 138.004 175.102 138.004C169.816 138.004 160.597 138.17 158.887 139.024" fill="white"/>
<path d="M202.972 138.069C203.569 137.039 203.79 134.668 203.891 132.103L195.692 133.886C195.692 133.886 196.528 137.637 191.932 140.56C187.336 143.483 162.325 151.819 160.68 152.233C159.035 152.647 176.536 144.733 169.872 145.146C163.208 145.56 155.266 152.656 150.679 152.656C149.945 152.661 149.215 152.559 148.51 152.353C148.005 155.496 148.041 158.346 149.273 159.706C151.828 162.611 157.638 160.046 163.061 159.366C168.484 158.686 191.215 145.376 194.966 143.152C198.716 140.927 201.777 140.091 202.972 138.069Z" fill="white"/>
<path opacity="0.6" d="M202.972 138.069C203.569 137.039 203.79 134.668 203.891 132.103L195.692 133.886C195.692 133.886 196.528 137.637 191.932 140.56C187.336 143.483 162.325 151.819 160.68 152.233C159.035 152.647 176.536 144.733 169.872 145.146C163.208 145.56 155.266 152.656 150.679 152.656C149.945 152.661 149.215 152.559 148.51 152.353C148.005 155.496 148.041 158.346 149.273 159.706C151.828 162.611 157.638 160.046 163.061 159.366C168.484 158.686 191.215 145.376 194.966 143.152C198.716 140.927 201.777 140.091 202.972 138.069Z" fill="white"/>
<path d="M155.872 136.414C155.872 136.414 153.308 137.774 151.276 142.729C149.245 147.683 146.681 156.884 149.227 159.789C151.773 162.693 157.591 160.129 163.014 159.449C168.438 158.768 191.169 145.459 194.919 143.234C198.67 141.01 201.749 140.164 202.944 138.114C204.139 136.065 203.799 128.73 203.964 125.145C204.129 121.56 203.284 105.52 203.284 105.52C203.284 105.52 202.089 101.595 200.039 101.935C200.039 101.935 197.649 100.575 197.144 101.935L196.114 104.693C196.114 104.693 193.899 104.013 193.357 105.208C192.986 106.371 192.758 107.575 192.676 108.793C192.676 108.793 190.121 109.987 190.121 111.55C190.121 113.113 190.627 122.305 190.627 124.86C190.627 127.415 190.287 131.349 191.141 133.05C191.996 134.75 192.851 136.294 192.851 136.294C192.851 136.294 180.387 138.004 175.102 138.004C169.816 138.004 160.597 138.17 158.887 139.024" stroke="#263238" stroke-width="0.919183" stroke-linecap="round" stroke-linejoin="round"/>
<path d="M259.63 144.687C251.44 139.401 234.371 143.492 228.911 143.152C223.451 142.812 208.266 134.447 208.266 134.447C208.266 134.447 211.336 131.377 211.501 129.502C211.667 127.627 211.501 122.507 211.501 119.602C211.501 116.698 212.356 113.802 212.531 111.587C212.705 109.372 209.773 110.898 209.286 111.587C208.799 112.276 207.576 119.087 207.576 119.087C207.576 119.087 206.041 114.492 206.041 113.977C206.041 113.462 205.701 107.147 204.846 104.583C203.992 102.018 201.951 104.583 201.951 104.583C201.776 103.048 201.262 101.825 200.067 101.825C198.872 101.825 197.851 106.099 197.851 106.099C197.851 103.535 196.997 103.71 196.142 104.555C195.287 105.401 195.296 111.045 195.296 111.045L194.267 109.51C193.072 109.169 192.428 111.045 192.428 112.754C192.428 114.464 193.108 119.575 193.108 123.84C193.059 126.015 193.231 128.189 193.623 130.329C194.371 133.316 195.641 136.148 197.373 138.694C200.278 142.959 210.003 148.244 215.978 152.849C221.952 157.454 239.527 165.139 248.232 166.508C256.936 167.878 262.939 171.104 264.952 167.363C266.965 163.622 270.752 145.174 268.877 139.034" fill="white"/>
<path d="M248.195 166.572C256.9 167.933 262.902 171.168 264.915 167.427C266.368 164.771 268.656 154.798 269.226 147.003C267.489 150.45 262.691 159.485 259.63 160.101C255.834 160.855 239.518 156.305 237.616 155.928C235.713 155.551 261.514 154.788 252.038 152.509C242.561 150.229 235.345 151.746 223.543 148.336C211.741 144.926 202.181 142.453 197.3 138.758C200.205 143.023 209.93 148.308 215.905 152.913C221.879 157.518 239.491 165.203 248.195 166.572Z" fill="white"/>
<path opacity="0.6" d="M248.195 166.572C256.9 167.933 262.902 171.168 264.915 167.427C266.368 164.771 268.656 154.798 269.226 147.003C267.489 150.45 262.691 159.485 259.63 160.101C255.834 160.855 239.518 156.305 237.616 155.928C235.713 155.551 261.514 154.788 252.038 152.509C242.561 150.229 235.345 151.746 223.543 148.336C211.741 144.926 202.181 142.453 197.3 138.758C200.205 143.023 209.93 148.308 215.905 152.913C221.879 157.518 239.491 165.203 248.195 166.572Z" fill="white"/>
<path d="M259.63 144.687C251.44 139.401 234.371 143.492 228.911 143.152C223.451 142.812 208.266 134.447 208.266 134.447C208.266 134.447 211.336 131.377 211.501 129.502C211.667 127.627 211.501 122.507 211.501 119.602C211.501 116.698 212.356 113.802 212.531 111.587C212.705 109.372 209.773 110.898 209.286 111.587C208.799 112.276 207.576 119.087 207.576 119.087C207.576 119.087 206.041 114.492 206.041 113.977C206.041 113.462 205.701 107.147 204.846 104.583C203.992 102.018 201.951 104.583 201.951 104.583C201.776 103.048 201.262 101.825 200.067 101.825C198.872 101.825 197.851 106.099 197.851 106.099C197.851 103.535 196.997 103.71 196.142 104.555C195.287 105.401 195.296 111.045 195.296 111.045L194.267 109.51C193.072 109.169 192.428 111.045 192.428 112.754C192.428 114.464 193.108 119.575 193.108 123.84C193.059 126.015 193.231 128.189 193.623 130.329C194.371 133.316 195.641 136.148 197.373 138.694C200.278 142.959 210.003 148.244 215.978 152.849C221.952 157.454 239.527 165.139 248.232 166.508C256.936 167.878 262.939 171.104 264.952 167.363C266.965 163.622 270.752 145.174 268.877 139.034" stroke="#263238" stroke-width="0.919183" stroke-linecap="round" stroke-linejoin="round"/>
<path d="M207.576 119.124C208.497 121.344 208.963 123.725 208.946 126.128" stroke="#263238" stroke-width="0.919183" stroke-linecap="round" stroke-linejoin="round"/>
<path d="M201.951 104.62C202.467 106.807 202.808 109.033 202.971 111.274C202.971 113.499 203.311 118.628 203.311 118.628" stroke="#263238" stroke-width="0.919183" stroke-linecap="round" stroke-linejoin="round"/>
<path d="M197.852 106.164C197.852 106.164 198.532 110.089 198.872 112.598C199.084 114.751 199.142 116.917 199.047 119.078" stroke="#263238" stroke-width="0.919183" stroke-linecap="round" stroke-linejoin="round"/>
<path d="M195.296 111.109C195.296 111.109 195.802 114.179 196.142 115.549C196.394 117.357 196.511 119.182 196.491 121.008" stroke="#263238" stroke-width="0.919183" stroke-linecap="round" stroke-linejoin="round"/>
<path d="M184.367 209.949C182.492 209.088 180.764 207.937 179.247 206.538C177.207 204.489 179.247 199.369 176.49 197.347C173.732 195.324 168.3 194.589 167.298 197.696C166.296 200.803 165.588 202.816 163.538 203.496C161.489 204.176 159.108 204.176 155.348 205.886C151.589 207.596 151.598 213.736 151.598 213.736C158.805 214.698 165.891 216.414 172.739 218.856C182.639 222.606 187.069 220.556 187.069 220.556C187.069 220.556 187.446 213.671 184.367 209.949Z" fill="white"/>
<path d="M180.24 213.552C180.24 213.552 174.403 212.715 173.153 210.629C171.903 208.542 173.981 204.792 170.644 204.792C167.307 204.792 167.73 207.292 164.807 208.129C161.884 208.965 157.297 207.706 159.384 210.215C161.47 212.725 169.817 217.716 174.817 218.552C179.817 219.389 183.577 216.466 180.24 213.552Z" fill="white"/>
<path opacity="0.6" d="M180.24 213.552C180.24 213.552 174.403 212.715 173.153 210.629C171.903 208.542 173.981 204.792 170.644 204.792C167.307 204.792 167.73 207.292 164.807 208.129C161.884 208.965 157.297 207.706 159.384 210.215C161.47 212.725 169.817 217.716 174.817 218.552C179.817 219.389 183.577 216.466 180.24 213.552Z" fill="white"/>
<path d="M184.367 209.949C182.492 209.088 180.764 207.937 179.247 206.538C177.207 204.489 179.247 199.369 176.49 197.347C173.732 195.324 168.3 194.589 167.298 197.696C166.296 200.803 165.588 202.816 163.538 203.496C161.489 204.176 159.108 204.176 155.348 205.886C151.589 207.596 151.598 213.736 151.598 213.736C158.805 214.698 165.891 216.414 172.739 218.856C182.639 222.606 187.069 220.556 187.069 220.556C187.069 220.556 187.446 213.671 184.367 209.949Z" stroke="#263238" stroke-width="0.919183" stroke-linecap="round" stroke-linejoin="round"/>
<path d="M209.755 219.995C214.946 218.659 220.035 216.957 224.986 214.903C231.512 212.256 238.112 209.654 244.408 206.502C253.968 201.722 257.378 194.552 254.988 185.682C252.598 176.812 248.508 169.983 231.089 173.053C213.671 176.123 208.156 186.601 200.756 194.552C191.61 204.342 184.073 209.379 180.617 208.892C176.674 208.34 175.837 215.712 181.297 218.451C190.121 222.863 200.186 222.348 209.755 219.995Z" fill="#263238" stroke="#263238" stroke-width="0.919183" stroke-linecap="round" stroke-linejoin="round"/>
<path d="M183.577 208.542C183.577 208.542 191.914 206.879 200.673 196.869C209.433 186.859 210.674 185.186 210.674 185.186" stroke="white" stroke-width="0.919183" stroke-linecap="round" stroke-linejoin="round"/>
<path d="M246.21 205.858C247.692 204.652 249.063 203.317 250.31 201.869" stroke="white" stroke-width="0.919183" stroke-linecap="round" stroke-linejoin="round"/>
<path d="M219.03 219.389C219.03 219.389 231.953 215.657 242.267 208.781" stroke="white" stroke-width="0.919183" stroke-linecap="round" stroke-linejoin="round"/>
<path d="M115.429 173.181C112.401 172.604 109.306 172.462 106.237 172.759C98.0472 173.439 92.5872 178.559 91.2268 182.998C89.8664 187.438 94.637 198.698 105.217 206.208C115.797 213.717 126.716 215.399 141.396 219.517C154.402 223.148 168.052 227.422 167.133 227.183C166.204 226.274 165.469 225.187 164.971 223.986C164.473 222.786 164.224 221.497 164.238 220.198C164.431 217.054 166.545 214.6 168.31 213.074C165.552 211.805 161.02 208.938 153.998 202.448C142.692 192.025 131.147 181.592 124.373 176.794" fill="#263238"/>
<path d="M115.429 173.181C112.401 172.604 109.306 172.462 106.237 172.759C98.0472 173.439 92.5872 178.559 91.2268 182.998C89.8664 187.438 94.637 198.698 105.217 206.208C115.797 213.717 126.716 215.399 141.396 219.517C154.402 223.148 168.052 227.422 167.133 227.183C166.204 226.274 165.469 225.187 164.971 223.986C164.473 222.786 164.224 221.497 164.238 220.198C164.431 217.054 166.545 214.6 168.31 213.074C165.552 211.805 161.02 208.938 153.998 202.448C142.692 192.025 131.147 181.592 124.373 176.794" stroke="#263238" stroke-width="0.919183" stroke-linecap="round" stroke-linejoin="round"/>
<path d="M120.732 177.41C118.839 176.49 117.681 176.012 117.681 176.012" stroke="white" stroke-width="0.919183" stroke-linecap="round" stroke-linejoin="round"/>
<path d="M156.047 202.706C156.047 202.706 138.114 188.523 131.027 183.522C128.783 181.938 126.454 180.477 124.05 179.147" stroke="white" stroke-width="0.919183" stroke-linecap="round" stroke-linejoin="round"/>
<path d="M209.286 218.451C204.847 217.422 204.507 218.451 193.927 218.102C183.347 217.752 171.747 214.011 171.747 214.011C171.747 214.011 170.754 214.158 168.309 213.028C166.544 214.554 164.43 217.008 164.237 220.151C164.224 221.451 164.473 222.74 164.971 223.94C165.469 225.141 166.204 226.228 167.133 227.137C168.971 227.624 170.745 228.056 172.427 228.341C179.937 229.711 189.147 233.121 193.927 235.171C197.78 236.955 201.97 237.895 206.216 237.928C209.967 237.928 208.505 238.489 211.244 237.8C213.984 237.11 213.037 235.199 213.037 235.199C214.204 235.139 215.355 234.91 216.456 234.518C218.497 233.829 217.817 231.099 217.817 231.099C219.157 231.147 220.493 230.932 221.751 230.465C223.837 229.371 223.837 227.073 222.936 224.95C221.576 221.732 213.726 219.471 209.286 218.451Z" fill="white"/>
<path d="M211.244 237.772C212.945 237.349 213.22 236.439 213.193 235.814C212.225 235.966 211.249 236.052 210.27 236.072C204.847 236.072 198.596 231.476 188.164 229.812C182.455 228.893 173.374 227.367 166.324 226.135C166.59 226.485 166.857 226.816 167.133 227.119C168.971 227.606 170.745 228.038 172.427 228.323C179.937 229.693 189.147 233.103 193.927 235.153C197.78 236.937 201.97 237.877 206.216 237.91C209.967 237.901 208.505 238.443 211.244 237.772Z" fill="white"/>
<path opacity="0.6" d="M211.244 237.772C212.945 237.349 213.22 236.439 213.193 235.814C212.225 235.966 211.249 236.052 210.27 236.072C204.847 236.072 198.596 231.476 188.164 229.812C182.455 228.893 173.374 227.367 166.324 226.135C166.59 226.485 166.857 226.816 167.133 227.119C168.971 227.606 170.745 228.038 172.427 228.323C179.937 229.693 189.147 233.103 193.927 235.153C197.78 236.937 201.97 237.877 206.216 237.91C209.967 237.901 208.505 238.443 211.244 237.772Z" fill="white"/>
<path d="M209.286 218.451C204.847 217.422 204.507 218.451 193.927 218.102C183.347 217.752 171.747 214.011 171.747 214.011C171.747 214.011 170.754 214.158 168.309 213.028C166.544 214.554 164.43 217.008 164.237 220.151C164.224 221.451 164.473 222.74 164.971 223.94C165.469 225.141 166.204 226.228 167.133 227.137C168.971 227.624 170.745 228.056 172.427 228.341C179.937 229.711 189.147 233.121 193.927 235.171C197.78 236.955 201.97 237.895 206.216 237.928C209.967 237.928 208.505 238.489 211.244 237.8C213.984 237.11 213.037 235.199 213.037 235.199C214.204 235.139 215.355 234.91 216.456 234.518C218.497 233.829 217.817 231.099 217.817 231.099C219.157 231.147 220.493 230.932 221.751 230.465C223.837 229.371 223.837 227.073 222.936 224.95C221.576 221.732 213.726 219.471 209.286 218.451Z" stroke="#263238" stroke-width="0.919183" stroke-linecap="round" stroke-linejoin="round"/>
<path d="M217.817 231.09C216.248 229.69 214.517 228.483 212.66 227.496" stroke="#263238" stroke-width="0.919183" stroke-linecap="round" stroke-linejoin="round"/>
<path d="M213.037 235.171C213.037 235.171 209.967 233.121 209.287 231.761" stroke="#263238" stroke-width="0.919183" stroke-linecap="round" stroke-linejoin="round"/>
<path d="M208.266 237.524C206.962 236.831 205.883 235.778 205.159 234.491" stroke="#263238" stroke-width="0.919183" stroke-linecap="round" stroke-linejoin="round"/>
<path d="M204.166 237.901C202.569 237.591 201.123 236.749 200.067 235.511" stroke="#263238" stroke-width="0.919183" stroke-linecap="round" stroke-linejoin="round"/>
<path d="M200.609 21.5161C200.609 21.5161 194.12 27.4816 194.644 33.9711C195.168 40.4605 193.081 44.0821 193.862 48.7699C194.644 53.4577 195.701 62.5577 197.539 64.8648C199.377 67.172 199.616 69.8008 201.436 71.0969C203.256 72.3929 209.488 72.3929 210.784 70.3156C212.08 68.2382 225.841 60.2045 226.879 57.3367C227.918 54.4688 227.661 53.7059 227.661 53.7059C227.661 53.7059 236.742 48.2552 235.446 43.5949C234.15 38.9347 230.51 37.1055 228.433 38.6681C226.355 40.2307 226.098 41.0028 226.098 41.0028C226.098 41.0028 220.666 37.4272 221.704 34.0538C222.743 30.6804 225.988 29.5222 224.949 25.6249C223.91 21.7276 216.143 23.6762 207.88 24.3105C201.363 24.7884 203.504 19.1263 200.609 21.5161Z" fill="white"/>
<path d="M235.4 43.5766C234.104 38.9071 230.464 37.0871 228.387 38.6497C226.309 40.2123 226.052 40.9844 226.052 40.9844C226.052 40.9844 220.62 37.4088 221.658 34.0354C222.697 30.662 225.942 29.5039 224.903 25.6065C223.864 21.7092 218.744 17.4993 210.481 18.1336C208.578 18.2806 207.199 18.4277 206.124 18.6207C209.571 18.345 215.527 18.3634 218.643 21.2128C223.239 25.3859 219.029 29.559 217.89 33.7413C216.75 37.9236 219.406 43.6041 218.643 47.7772C217.88 51.9503 214.093 54.9836 214.093 60.2965C214.093 65.6094 214.47 67.5121 209.497 70.9222L208.523 71.6208C209.381 71.4583 210.153 70.9956 210.702 70.3156C211.998 68.2382 225.758 60.2046 226.796 57.3367C227.835 54.4689 227.578 53.706 227.578 53.706C227.578 53.706 236.696 48.2552 235.4 43.5766Z" fill="white"/>
<path opacity="0.6" d="M235.4 43.5766C234.104 38.9071 230.464 37.0871 228.387 38.6497C226.309 40.2123 226.052 40.9844 226.052 40.9844C226.052 40.9844 220.62 37.4088 221.658 34.0354C222.697 30.662 225.942 29.5039 224.903 25.6065C223.864 21.7092 218.744 17.4993 210.481 18.1336C208.578 18.2806 207.199 18.4277 206.124 18.6207C209.571 18.345 215.527 18.3634 218.643 21.2128C223.239 25.3859 219.029 29.559 217.89 33.7413C216.75 37.9236 219.406 43.6041 218.643 47.7772C217.88 51.9503 214.093 54.9836 214.093 60.2965C214.093 65.6094 214.47 67.5121 209.497 70.9222L208.523 71.6208C209.381 71.4583 210.153 70.9956 210.702 70.3156C211.998 68.2382 225.758 60.2046 226.796 57.3367C227.835 54.4689 227.578 53.706 227.578 53.706C227.578 53.706 236.696 48.2552 235.4 43.5766Z" fill="white"/>
<path d="M200.609 21.5161C200.609 21.5161 194.12 27.4816 194.644 33.9711C195.168 40.4605 193.081 44.0821 193.862 48.7699C194.644 53.4577 195.701 62.5577 197.539 64.8648C199.377 67.172 199.616 69.8008 201.436 71.0969C203.256 72.3929 209.488 72.3929 210.784 70.3156C212.08 68.2382 225.841 60.2045 226.879 57.3367C227.918 54.4688 227.661 53.7059 227.661 53.7059C227.661 53.7059 236.742 48.2552 235.446 43.5949C234.15 38.9347 230.51 37.1055 228.433 38.6681C226.355 40.2307 226.098 41.0028 226.098 41.0028C226.098 41.0028 220.666 37.4272 221.704 34.0538C222.743 30.6804 225.988 29.5222 224.949 25.6249C223.91 21.7276 216.143 23.6762 207.88 24.3105C201.363 24.7884 203.504 19.1263 200.609 21.5161Z" stroke="#263238" stroke-width="0.919183" stroke-linecap="round" stroke-linejoin="round"/>
<path d="M206.998 44.3762C206.998 44.3762 209.838 48.2644 214.498 44.3762" stroke="#263238" stroke-width="0.919183" stroke-linecap="round" stroke-linejoin="round"/>
<path d="M195.416 43.8339C195.655 44.1478 195.959 44.4067 196.307 44.5931C196.655 44.7794 197.039 44.889 197.433 44.9142C197.826 44.9395 198.221 44.8799 198.59 44.7396C198.959 44.5992 199.293 44.3812 199.571 44.1005" stroke="#263238" stroke-width="0.919183" stroke-linecap="round" stroke-linejoin="round"/>
<path d="M204.764 55.5259C202.687 56.0499 199.837 55.2686 199.571 54.4873C199.304 53.706 200.876 43.5766 200.876 43.5766L199.038 40.4605C199.038 40.4605 197.475 38.1258 195.361 39.6884" stroke="#263238" stroke-width="0.919183" stroke-linecap="round" stroke-linejoin="round"/>
<path d="M200.095 60.1954L206.235 60.1678" stroke="#263238" stroke-width="0.919183" stroke-linecap="round" stroke-linejoin="round"/>
<path d="M216.19 40.2032C214.454 39.0896 212.446 38.4763 210.384 38.4309C208.323 38.3855 206.289 38.9097 204.507 39.9458" stroke="#263238" stroke-width="0.919183" stroke-linecap="round" stroke-linejoin="round"/>
<path d="M233.387 44.4957C233.387 44.4957 232.303 41.683 230.134 42.547C227.964 43.4111 227.532 46.2238 227.532 46.2238C227.532 46.2238 229.269 45.5712 229.269 47.7404C229.269 49.9097 227.321 49.0365 227.321 49.0365" stroke="#263238" stroke-width="0.919183" stroke-linecap="round" stroke-linejoin="round"/>
</g>
<defs>
<clipPath id="clip0_217_101">
<rect width="378" height="265" fill="white"/>
</clipPath>
</defs>
</svg>
